<?xml version="1.0" encoding="utf-8" ?><svg xmlns="http://www.w3.org/2000/svg" xmlns:xlink="http://www.w3.org/1999/xlink" width="512" height="512" viewBox="0 0 512 512" xmlns:c2pa="http://c2pa.org/manifest"><metadata><c2pa:manifest>AAA69Wp1bWIAAAAeanVtZGMycGEAEQAQgAAAqgA4m3EDYzJwYQAAAA6CanVtYgAAAEdqdW1kYzJtYQARABCAAACqADibcQN1cm46YzJwYToxOGI1NDFhMC0xMDJmLTQyN2QtOWZmNS1lZWY4NmEzOGFiYjkAAAADs2p1bWIAAAApanVtZGMyYXMAEQAQgAAAqgA4m3EDYzJwYS5hc3NlcnRpb25zAAAAAMlqdW1iAAAARGp1bWRjYm9yABEAEIAAAKoAOJtxE2MycGEuaW5ncmVkaWVudC52MwAAAAAYYzJzaKlwdk+HIov3wJRzIXCENlwAAAB9Y2JvcqRscmVsYXRpb25zaGlwaHBhcmVudE9maGRjOnRpdGxlZnNvdXJjZWlkYzpmb3JtYXRqaW1hZ2Uvd2VicGppbnN0YW5jZUlEeCx4bXA6aWlkOmQzYTFjMTUzLTU2MTktNDVmYy04OTI4LTgzMWY0YjEzNWMxOAAAAfVqdW1iAAAAQWp1bWRjYm9yABEAEIAAAKoAOJtxE2MycGEuYWN0aW9ucy52MgAAAAAYYzJzaLCMKn4Jzi7H5sWYLxTA/r0AAAGsY2JvcqFnYWN0aW9uc4KiZmFjdGlvbmtjMnBhLm9wZW5lZGpwYXJhbWV0ZXJzoWtpbmdyZWRpZW50c4GiY3VybHgtc2VsZiNqdW1iZj1jMnBhLmFzc2VydGlvbnMvYzJwYS5pbmdyZWRpZW50LnYzZGhhc2hYIIiYv9vGFGel4r1klOzXT5ZAyIv8uPcdYejWOqV2vHKhpGZhY3Rpb25rYzJwYS5lZGl0ZWRqcGFyYW1ldGVyc6FraW5ncmVkaWVudHOBomN1cmx4LXNlbGYjanVtYmY9YzJwYS5hc3NlcnRpb25zL2MycGEuaW5ncmVkaWVudC52M2RoYXNoWCCImL/bxhRnpeK9ZJTs10+WQMiL/Lj3HWHo1jqldrxyoXFkaWdpdGFsU291cmNlVHlwZXhTaHR0cDovL2N2LmlwdGMub3JnL25ld3Njb2Rlcy9kaWdpdGFsc291cmNldHlwZS9jb21wb3NpdGVXaXRoVHJhaW5lZEFsZ29yaXRobWljTWVkaWFrZGVzY3JpcHRpb252Q3JlYXRlZCBieSBSZWNyYWZ0IEFJLgAAAMRqdW1iAAAAQGp1bWRjYm9yABEAEIAAAKoAOJtxE2MycGEuaGFzaC5kYXRhAAAAABhjMnNoz2Tq6X/jLIbRCOI8cjhENQAAAHxjYm9ypWpleGNsdXNpb25zgaJlc3RhcnQZqEJmbGVuZ3RoGQ6wZG5hbWVuanVtYmYgbWFuaWZlc3RjYWxnZnNoYTI1NmRoYXNoWCBlVCubwGS/zJcRPl8RJdcpxToPXmPfq7MpK2QAl6tAimNwYWRIAAAAAAAAAAAAAAKkanVtYgAAACdqdW1kYzJjbAARABCAAACqADibcQNjMnBhLmNsYWltLnYyAAAAAnVjYm9yp2ppbnN0YW5jZUlEeCx4bXA6aWlkOjkxM2UyMzAxLTJkMzQtNDYwMS04MjhkLTQyYzQ4ZTc5NTBhZHRjbGFpbV9nZW5lcmF0b3JfaW5mb6NkbmFtZWpyZWNyYWZ0LmFpZ3ZlcnNpb254KDgxY2U4MmUyYzVjM2NiZmJlOGM2ZmJlMTc5ZDVmOGQ5MWM0MDljZTF3b3JnLmNvbnRlbnRhdXRoLmMycGFfcnNmMC45MC43aXNpZ25hdHVyZXhNc2VsZiNqdW1iZj0vYzJwYS91cm46YzJwYToxOGI1NDFhMC0xMDJmLTQyN2QtOWZmNS1lZWY4NmEzOGFiYjkvYzJwYS5zaWduYXR1cmVyY3JlYXRlZF9hc3NlcnRpb25zgqJjdXJseCpzZWxmI2p1bWJmPWMycGEuYXNzZXJ0aW9ucy9jMnBhLmFjdGlvbnMudjJkaGFzaFgghxyxxkzcSkYM6HpHh2vCuWE4p/+DckBuY9kpLq7zMkCiY3VybHgpc2VsZiNqdW1iZj1jMnBhLmFzc2VydGlvbnMvYzJwYS5oYXNoLmRhdGFkaGFzaFgg5JXfZYiBInZgjHZqoXd1Tr5Griyl+yeZ9yvXgMs9F6NzZ2F0aGVyZWRfYXNzZXJ0aW9uc4GiY3VybHgtc2VsZiNqdW1iZj1jMnBhLmFzc2VydGlvbnMvYzJwYS5pbmdyZWRpZW50LnYzZGhhc2hYIIiYv9vGFGel4r1klOzXT5ZAyIv8uPcdYejWOqV2vHKhaGRjOnRpdGxleBpSZWNyYWZ0IEFJIEdlbmVyYXRlZCBJbWFnZWNhbGdmc2hhMjU2AAAH3Gp1bWIAAAAoanVtZGMyY3MAEQAQgAAAqgA4m3EDYzJwYS5zaWduYXR1cmUAAAAHrGNib3LShFkDsKIBJhghglkB5zCCAeMwggGJoAMCAQICCQC33lpjQ1FuejAKBggqhkjOPQQDAjBAMR8wHQYDVQQDDBZSZWNyYWZ0IFN0YWdpbmcgRGV2IENBMRAwDgYDVQQKDAdSZWNyYWZ0MQswCQYDVQQGEwJVUzAeFw0yNjA2MTIxOTQzNTBaFw0yNzA2MTIxOTQzNTBaMDcxCzAJBgNVBAYTAlVTMRMwEQYDVQQKEwpSZWNyYWZ0IEFJMRMwEQYDVQQDEwpyZWNyYWZ0LmFpMFkwEwYHKoZIzj0CAQYIKoZIzj0DAQcDQgAESmk1WwArIPw3hty3jsWHSA/1QOhBRu9xOjpJ2/iiIghScoEVM+Lnjds/7dqmG+giFL0vEb4DoogpX6KrGLcPNaN1MHMwDAYDVR0TAQH/BAIwADAOBgNVHQ8BAf8EBAMCBsAwEwYDVR0lBAwwCgYIKwYBBQUHAwQwHQYDVR0OBBYEFC8x6QXp/eki9cuCDx2vDJDLIV39MB8GA1UdIwQYMBaAFAILKjgayqqXSv/5v5MWaO2UeHm3MAoGCCqGSM49BAMCA0gAMEUCIFPISltGl775PEkIFRTZGsevWJvWnvBrE9kWU0MPgedQAiEAtA+AZBKEQ+DdK9mUZDctB2Wlt1iAsv0GRjfeYpReMsxZAb0wggG5MIIBX6ADAgECAgkAnPloO0+gE28wCgYIKoZIzj0EAwIwQDEfMB0GA1UEAwwWUmVjcmFmdCBTdGFnaW5nIERldiBDQTEQMA4GA1UECgwHUmVjcmFmdDELMAkGA1UEBhMCVVMwHhcNMjYwNjEyMTk0MDE2WhcNMjgwNjExMTk0MDE2WjBAMR8wHQYDVQQDDBZSZWNyYWZ0IFN0YWdpbmcgRGV2IENBMRAwDgYDVQQKDAdSZWNyYWZ0MQswCQYDVQQGEwJVUzBZMBMGByqGSM49AgEGCCqGSM49AwEHA0IABEPSEAZXFWymij2K0EnzoS/9NLO8VAwu0YpyLizvyNZPfcvcoeqFhfZD8Wj/rcdb9T3ji98q1arie99B9GRog8qjQjBAMA8GA1UdEwEB/wQFMAMBAf8wDgYDVR0PAQH/BAQDAgGGMB0GA1UdDgQWBBQCCyo4Gsqql0r/+b+TFmjtlHh5tzAKBggqhkjOPQQDAgNIADBFAiBUMDSJi5WA3kIY4BfmYqk24HLs0qpjicN0NpUP4bvNxQIhAPTvHC5v8X6FS6geI7XW7h84t1i/qdkTfg0RpMKWLMFboWNwYWRZA6QAAAAAAAAAAAAAAAAAAAAAAAAAAAAAAAAAAAAAAAAAAAAAAAAAAAAAAAAAAAAAAAAAAAAAAAAAAAAAAAAAAAAAAAAAAAAAAAAAAAAAAAAAAAAAAAAAAAAAAAAAAAAAAAAAAAAAAAAAAAAAAAAAAAAAAAAAAAAAAAAAAAAAAAAAAAAAAAAAAAAAAAAAAAAAAAAAAAAAAAAAAAAAAAAAAAAAAAAAAAAAAAAAAAAAAAAAAAAAAAAAAAAAAAAAAAAAAAAAAAAAAAAAAAAAAAAAAAAAAAAAAAAAAAAAAAAAAAAAAAAAAAAAAAAAAAAAAAAAAAAAAAAAAAAAAAAAAAAAAAAAAAAAAAAAAAAAAAAAAAAAAAAAAAAAAAAAAAAAAAAAAAAAAAAAAAAAAAAAAAAAAAAAAAAAAAAAAAAAAAAAAAAAAAAAAAAAAAAAAAAAAAAAAAAAAAAAAAAAAAAAAAAAAAAAAAAAAAAAAAAAAAAAAAAAAAAAAAAAAAAAAAAAAAAAAAAAAAAAAAAAAAAAAAAAAAAAAAAAAAAAAAAAAAAAAAAAAAAAAAAAAAAAAAAAAAAAAAAAAAAAAAAAAAAAAAAAAAAAAAAAAAAAAAAAAAAAAAAAAAAAAAAAAAAAAAAAAAAAAAAAAAAAAAAAAAAAAAAAAAAAAAAAAAAAAAAAAAAAAAAAAAAAAAAAAAAAAAAAAAAAAAAAAAAAAAAAAAAAAAAAAAAAAAAAAAAAAAAAAAAAAAAAAAAAAAAAAAAAAAAAAAAAAAAAAAAAAAAAAAAAAAAAAAAAAAAAAAAAAAAAAAAAAAAAAAAAAAAAAAAAAAAAAAAAAAAAAAAAAAAAAAAAAAAAAAAAAAAAAAAAAAAAAAAAAAAAAAAAAAAAAAAAAAAAAAAAAAAAAAAAAAAAAAAAAAAAAAAAAAAAAAAAAAAAAAAAAAAAAAAAAAAAAAAAAAAAAAAAAAAAAAAAAAAAAAAAAAAAAAAAAAAAAAAAAAAAAAAAAAAAAAAAAAAAAAAAAAAAAAAAAAAAAAAAAAAAAAAAAAAAAAAAAAAAAAAAAAAAAAAAAAAAAAAAAAAAAAAAAAAAAAAAAAAAAAAAAAAAAAAAAAAAAAAAAAAAAAAAAAAAAAAAAAAAAAAAAAAAAAAAAAAAAAAAAAAAAAAAAAAAAAAAAAAAAAAAAAAAAAAAAAAAAAAAAAAAAAAAAAAAAAAAAAAAAAAAAAAAAAAAAAAAAAAAAAAAAAAAAAAAAPZYQNrQ1u3GUq5U1dqSZ0gz737TtsDIZ66/Yyn/y6wQCyfe2cf/BChObqQ5G/1924EUeCvscnxSsfCbjBqC01c+uygAABZLanVtYgAAAEdqdW1kYzJtYQARABCAAACqADibcQN1cm46YzJwYToyOGI5MWM0My1kMzg5LTQ3NTMtYmExZi04NmVjZTZhMDFlZjEAAAALfGp1bWIAAAApanVtZGMyYXMAEQAQgAAAqgA4m3EDYzJwYS5hc3NlcnRpb25zAAAACJJqdW1iAAAARGp1bWRjYm9yABEAEIAAAKoAOJtxE2MycGEuaW5ncmVkaWVudC52MwAAAAAYYzJzaK43um/qS6S9WUVDqVSX/1cAAAhGY2JvcqdscmVsYXRpb25zaGlwaHBhcmVudE9maGRjOnRpdGxlZnNvdXJjZWlkYzpmb3JtYXRqaW1hZ2Uvd2VicHF2YWxpZGF0aW9uUmVzdWx0c6JuYWN0aXZlTWFuaWZlc3SjZ3N1Y2Nlc3OGo2Rjb2RleB1jbGFpbVNpZ25hdHVyZS5pbnNpZGVWYWxpZGl0eWN1cmx4TXNlbGYjanVtYmY9L2MycGEvdXJuOmMycGE6MThiNTQxYTAtMTAyZi00MjdkLTlmZjUtZWVmODZhMzhhYmI5L2MycGEuc2lnbmF0dXJla2V4cGxhbmF0aW9udWNsYWltIHNpZ25hdHVyZSB2YWxpZKNkY29kZXgYY2xhaW1TaWduYXR1cmUudmFsaWRhdGVkY3VybHhNc2VsZiNqdW1iZj0vYzJwYS91cm46YzJwYToxOGI1NDFhMC0xMDJmLTQyN2QtOWZmNS1lZWY4NmEzOGFiYjkvYzJwYS5zaWduYXR1cmVrZXhwbGFuYXRpb251Y2xhaW0gc2lnbmF0dXJlIHZhbGlko2Rjb2RleBlhc3NlcnRpb24uaGFzaGVkVVJJLm1hdGNoY3VybHhec2VsZiNqdW1iZj0vYzJwYS91cm46YzJwYToxOGI1NDFhMC0xMDJmLTQyN2QtOWZmNS1lZWY4NmEzOGFiYjkvYzJwYS5hc3NlcnRpb25zL2MycGEuYWN0aW9ucy52MmtleHBsYW5hdGlvbng+aGFzaGVkIHVyaSBtYXRjaGVkOiBzZWxmI2p1bWJmPWMycGEuYXNzZXJ0aW9ucy9jMnBhLmFjdGlvbnMudjKjZGNvZGV4GWFzc2VydGlvbi5oYXNoZWRVUkkubWF0Y2hjdXJseF1zZWxmI2p1bWJmPS9jMnBhL3VybjpjMnBhOjE4YjU0MWEwLTEwMmYtNDI3ZC05ZmY1LWVlZjg2YTM4YWJiOS9jMnBhLmFzc2VydGlvbnMvYzJwYS5oYXNoLmRhdGFrZXhwbGFuYXRpb254PWhhc2hlZCB1cmkgbWF0Y2hlZDogc2VsZiNqdW1iZj1jMnBhLmFzc2VydGlvbnMvYzJwYS5oYXNoLmRhdGGjZGNvZGV4GWFzc2VydGlvbi5oYXNoZWRVUkkubWF0Y2hjdXJseGFzZWxmI2p1bWJmPS9jMnBhL3VybjpjMnBhOjE4YjU0MWEwLTEwMmYtNDI3ZC05ZmY1LWVlZjg2YTM4YWJiOS9jMnBhLmFzc2VydGlvbnMvYzJwYS5pbmdyZWRpZW50LnYza2V4cGxhbmF0aW9ueEFoYXNoZWQgdXJpIG1hdGNoZWQ6IHNlbGYjanVtYmY9YzJwYS5hc3NlcnRpb25zL2MycGEuaW5ncmVkaWVudC52M6NkY29kZXgYYXNzZXJ0aW9uLmRhdGFIYXNoLm1hdGNoY3VybHhdc2VsZiNqdW1iZj0vYzJwYS91cm46YzJwYToxOGI1NDFhMC0xMDJmLTQyN2QtOWZmNS1lZWY4NmEzOGFiYjkvYzJwYS5hc3NlcnRpb25zL2MycGEuaGFzaC5kYXRha2V4cGxhbmF0aW9ub2RhdGEgaGFzaCB2YWxpZG1pbmZvcm1hdGlvbmFsgGdmYWlsdXJlgaNkY29kZXgbc2lnbmluZ0NyZWRlbnRpYWwudW50cnVzdGVkY3VybHhNc2VsZiNqdW1iZj0vYzJwYS91cm46YzJwYToxOGI1NDFhMC0xMDJmLTQyN2QtOWZmNS1lZWY4NmEzOGFiYjkvYzJwYS5zaWduYXR1cmVrZXhwbGFuYXRpb254HXNpZ25pbmcgY2VydGlmaWNhdGUgdW50cnVzdGVkcGluZ3JlZGllbnREZWx0YXOBonZpbmdyZWRpZW50QXNzZXJ0aW9uVVJJeGFzZWxmI2p1bWJmPS9jMnBhL3VybjpjMnBhOjE4YjU0MWEwLTEwMmYtNDI3ZC05ZmY1LWVlZjg2YTM4YWJiOS9jMnBhLmFzc2VydGlvbnMvYzJwYS5pbmdyZWRpZW50LnYzcHZhbGlkYXRpb25EZWx0YXOjZ3N1Y2Nlc3OAbWluZm9ybWF0aW9uYWyBo2Rjb2RleBxpbmdyZWRpZW50LnVua25vd25Qcm92ZW5hbmNlY3VybHhhc2VsZiNqdW1iZj0vYzJwYS91cm46YzJwYToxOGI1NDFhMC0xMDJmLTQyN2QtOWZmNS1lZWY4NmEzOGFiYjkvYzJwYS5hc3NlcnRpb25zL2MycGEuaW5ncmVkaWVudC52M2tleHBsYW5hdGlvbngrc291cmNlOiBpbmdyZWRpZW50IGRvZXMgbm90IGhhdmUgcHJvdmVuYW5jZWdmYWlsdXJlgGppbnN0YW5jZUlEeCx4bXA6aWlkOmM0YjNjZTIwLWFiZTMtNDBlMC1iNTg5LWFiMzJhMDBmNmE1Nm5hY3RpdmVNYW5pZmVzdKNjdXJseD5zZWxmI2p1bWJmPS9jMnBhL3VybjpjMnBhOjE4YjU0MWEwLTEwMmYtNDI3ZC05ZmY1LWVlZjg2YTM4YWJiOWNhbGdmc2hhMjU2ZGhhc2hYIHZqoet5b4q03jpDM8xwI+kmYihvSWf3sZpm3mVJt3jYbmNsYWltU2lnbmF0dXJlo2N1cmx4TXNlbGYjanVtYmY9L2MycGEvdXJuOmMycGE6MThiNTQxYTAtMTAyZi00MjdkLTlmZjUtZWVmODZhMzhhYmI5L2MycGEuc2lnbmF0dXJlY2FsZ2ZzaGEyNTZkaGFzaFgghTUyMYCARPNury5MPPUAUJvZM6qXJ+zARio88tL3NJwAAAH1anVtYgAAAEFqdW1kY2JvcgARABCAAACqADibcRNjMnBhLmFjdGlvbnMudjIAAAAAGGMyc2hnbBZ1KRiaPJQSbWJ4Q+RyAAABrGNib3KhZ2FjdGlvbnOComZhY3Rpb25rYzJwYS5vcGVuZWRqcGFyYW1ldGVyc6FraW5ncmVkaWVudHOBomN1cmx4LXNlbGYjanVtYmY9YzJwYS5hc3NlcnRpb25zL2MycGEuaW5ncmVkaWVudC52M2RoYXNoWCAAB6iT0B6BIheJ/lQrUi71kTB/g1nLM6H+ywMr62TcLaRmYWN0aW9ua2MycGEuZWRpdGVkanBhcmFtZXRlcnOha2luZ3JlZGllbnRzgaJjdXJseC1zZWxmI2p1bWJmPWMycGEuYXNzZXJ0aW9ucy9jMnBhLmluZ3JlZGllbnQudjNkaGFzaFggAAeok9AegSIXif5UK1Iu9ZEwf4NZyzOh/ssDK+tk3C1xZGlnaXRhbFNvdXJjZVR5cGV4U2h0dHA6Ly9jdi5pcHRjLm9yZy9uZXdzY29kZXMvZGlnaXRhbHNvdXJjZXR5cGUvY29tcG9zaXRlV2l0aFRyYWluZWRBbGdvcml0aG1pY01lZGlha2Rlc2NyaXB0aW9udkNyZWF0ZWQgYnkgUmVjcmFmdCBBSS4AAADEanVtYgAAAEBqdW1kY2JvcgARABCAAACqADibcRNjMnBhLmhhc2guZGF0YQAAAAAYYzJzaKVX674Yjr3eB64KdmPcIHYAAAB8Y2JvcqVqZXhjbHVzaW9uc4GiZXN0YXJ0GNlmbGVuZ3RoGTFEZG5hbWVuanVtYmYgbWFuaWZlc3RjYWxnZnNoYTI1NmRoYXNoWCBDC6c0JqCPtJML1w6eDG1PQSA09Cfsxf/WcFfNGB6YhGNwYWRJAAAAAAAAAAAAAAACpGp1bWIAAAAnanVtZGMyY2wAEQAQgAAAqgA4m3EDYzJwYS5jbGFpbS52MgAAAAJ1Y2JvcqdqaW5zdGFuY2VJRHgseG1wOmlpZDo3ZmNjM2UxMC04ZjI1LTRlMTYtYTg5My05MDIxN2ZlN2M3OWV0Y2xhaW1fZ2VuZXJhdG9yX2luZm+jZG5hbWVqcmVjcmFmdC5haWd2ZXJzaW9ueCg4MWNlODJlMmM1YzNjYmZiZThjNmZiZTE3OWQ1ZjhkOTFjNDA5Y2Uxd29yZy5jb250ZW50YXV0aC5jMnBhX3JzZjAuOTAuN2lzaWduYXR1cmV4TXNlbGYjanVtYmY9L2MycGEvdXJuOmMycGE6MjhiOTFjNDMtZDM4OS00NzUzLWJhMWYtODZlY2U2YTAxZWYxL2MycGEuc2lnbmF0dXJlcmNyZWF0ZWRfYXNzZXJ0aW9uc4KiY3VybHgqc2VsZiNqdW1iZj1jMnBhLmFzc2VydGlvbnMvYzJwYS5hY3Rpb25zLnYyZGhhc2hYIJtBy/i4H2wgVeNx+BLcIThyVkcnaaVea7ZUjFzMpMBjomN1cmx4KXNlbGYjanVtYmY9YzJwYS5hc3NlcnRpb25zL2MycGEuaGFzaC5kYXRhZGhhc2hYIFciLQFSazYW9VCEGb7NzE9GjOPH+9oiBuZbwtsJrxzQc2dhdGhlcmVkX2Fzc2VydGlvbnOBomN1cmx4LXNlbGYjanVtYmY9YzJwYS5hc3NlcnRpb25zL2MycGEuaW5ncmVkaWVudC52M2RoYXNoWCAAB6iT0B6BIheJ/lQrUi71kTB/g1nLM6H+ywMr62TcLWhkYzp0aXRsZXgaUmVjcmFmdCBBSSBHZW5lcmF0ZWQgSW1hZ2VjYWxnZnNoYTI1NgAAB9xqdW1iAAAAKGp1bWRjMmNzABEAEIAAAKoAOJtxA2MycGEuc2lnbmF0dXJlAAAAB6xjYm9y0oRZA7CiASYYIYJZAecwggHjMIIBiaADAgECAgkAt95aY0NRbnowCgYIKoZIzj0EAwIwQDEfMB0GA1UEAwwWUmVjcmFmdCBTdGFnaW5nIERldiBDQTEQMA4GA1UECgwHUmVjcmFmdDELMAkGA1UEBhMCVVMwHhcNMjYwNjEyMTk0MzUwWhcNMjcwNjEyMTk0MzUwWjA3MQswCQYDVQQGEwJVUzETMBEGA1UEChMKUmVjcmFmdCBBSTETMBEGA1UEAxMKcmVjcmFmdC5haTBZMBMGByqGSM49AgEGCCqGSM49AwEHA0IABEppNVsAKyD8N4bct47Fh0gP9UDoQUbvcTo6Sdv4oiIIUnKBFTPi543bP+3aphvoIhS9LxG+A6KIKV+iqxi3DzWjdTBzMAwGA1UdEwEB/wQCMAAwDgYDVR0PAQH/BAQDAgbAMBMGA1UdJQQMMAoGCCsGAQUFBwMEMB0GA1UdDgQWBBQvMekF6f3pIvXLgg8drwyQyyFd/TAfBgNVHSMEGDAWgBQCCyo4Gsqql0r/+b+TFmjtlHh5tzAKBggqhkjOPQQDAgNIADBFAiBTyEpbRpe++TxJCBUU2RrHr1ib1p7waxPZFlNDD4HnUAIhALQPgGQShEPg3SvZlGQ3LQdlpbdYgLL9BkY33mKUXjLMWQG9MIIBuTCCAV+gAwIBAgIJAJz5aDtPoBNvMAoGCCqGSM49BAMCMEAxHzAdBgNVBAMMFlJlY3JhZnQgU3RhZ2luZyBEZXYgQ0ExEDAOBgNVBAoMB1JlY3JhZnQxCzAJBgNVBAYTAlVTMB4XDTI2MDYxMjE5NDAxNloXDTI4MDYxMTE5NDAxNlowQDEfMB0GA1UEAwwWUmVjcmFmdCBTdGFnaW5nIERldiBDQTEQMA4GA1UECgwHUmVjcmFmdDELMAkGA1UEBhMCVVMwWTATBgcqhkjOPQIBBggqhkjOPQMBBwNCAARD0hAGVxVspoo9itBJ86Ev/TSzvFQMLtGKci4s78jWT33L3KHqhYX2Q/Fo/63HW/U944vfKtWq4nvfQfRkaIPKo0IwQDAPBgNVHRMBAf8EBTADAQH/MA4GA1UdDwEB/wQEAwIBhjAdBgNVHQ4EFgQUAgsqOBrKqpdK//m/kxZo7ZR4ebcwCgYIKoZIzj0EAwIDSAAwRQIgVDA0iYuVgN5CGOAX5mKpNuBy7NKqY4nDdDaVD+G7zcUCIQD07xwub/F+hUuoHiO11u4fOLdYv6nZE34NEaTClizBW6FjcGFkWQOkAAAAAAAAAAAAAAAAAAAAAAAAAAAAAAAAAAAAAAAAAAAAAAAAAAAAAAAAAAAAAAAAAAAAAAAAAAAAAAAAAAAAAAAAAAAAAAAAAAAAAAAAAAAAAAAAAAAAAAAAAAAAAAAAAAAAAAAAAAAAAAAAAAAAAAAAAAAAAAAAAAAAAAAAAAAAAAAAAAAAAAAAAAAAAAAAAAAAAAAAAAAAAAAAAAAAAAAAAAAAAAAAAAAAAAAAAAAAAAAAAAAAAAAAAAAAAAAAAAAAAAAAAAAAAAAAAAAAAAAAAAAAAAAAAAAAAAAAAAAAAAAAAAAAAAAAAAAAAAAAAAAAAAAAAAAAAAAAAAAAAAAAAAAAAAAAAAAAAAAAAAAAAAAAAAAAAAAAAAAAAAAAAAAAAAAAAAAAAAAAAAAAAAAAAAAAAAAAAAAAAAAAAAAAAAAAAAAAAAAAAAAAAAAAAAAAAAAAAAAAAAAAAAAAAAAAAAAAAAAAAAAAAAAAAAAAAAAAAAAAAAAAAAAAAAAAAAAAAAAAAAAAAAAAAAAAAAAAAAAAAAAAAAAAAAAAAAAAAAAAAAAAAAAAAAAAAAAAAAAAAAAAAAAAAAAAAAAAAAAAAAAAAAAAAAAAAAAAAAAAAAAAAAAAAAAAAAAAAAAAAAAAAAAAAAAAAAAAAAAAAAAAAAAAAAAAAAAAAAAAAAAAAAAAAAAAAAAAAAAAAAAAAAAAAAAAAAAAAAAAAAAAAAAAAAAAAAAAAAAAAAAAAAAAAAAAAAAAAAAAAAAAAAAAAAAAAAAAAAAAAAAAAAAAAAAAAAAAAAAAAAAAAAAAAAAAAAAAAAAAAAAAAAAAAAAAAAAAAAAAAAAAAAAAAAAAAAAAAAAAAAAAAAAAAAAAAAAAAAAAAAAAAAAAAAAAAAAAAAAAAAAAAAAAAAAAAAAAAAAAAAAAAAAAAAAAAAAAAAAAAAAAAAAAAAAAAAAAAAAAAAAAAAAAAAAAAAAAAAAAAAAAAAAAAAAAAAAAAAAAAAAAAAAAAAAAAAAAAAAAAAAAAAAAAAAAAAAAAAAAAAAAAAAAAAAAAAAAAAAAAAAAAAAAAAAAAAAAAAAAAAAAAAAAAAAAAAAAAAAAAAAAAAAAAAAAAAAAAAAAAAAAAAAAAAAAAAAAAAAAAAAAAAAAAAAAAAAAAAAAAAAAAAAAAAAAAAAAAAAAAAAAAAAAAAAAAAAAAAAAAAAAAAAAAAAAAAAAAAAAAAAAAAAAAAAAAAAAAAAAAAD2WECS2NKn3vE4d9tDPkX8giVrqt2ot19Vgzcxdj0DZdVr2kUX+gDIkOwaW+lGClY9EAVxa9o5AdQG80rseYHucqZ4AAAWAmp1bWIAAABHanVtZGMybWEAEQAQgAAAqgA4m3EDdXJuOmMycGE6MGFkODAyMWEtNmZkZS00YmYxLWE2MjAtNjVlNjk3YmM5NGY0AAAAC0FqdW1iAAAAKWp1bWRjMmFzABEAEIAAAKoAOJtxA2MycGEuYXNzZXJ0aW9ucwAAAAheanVtYgAAAERqdW1kY2JvcgARABCAAACqADibcRNjMnBhLmluZ3JlZGllbnQudjMAAAAAGGMyc2ga6CL4p8FbQf2zdGNfmBleAAAIEmNib3KnbHJlbGF0aW9uc2hpcGhwYXJlbnRPZmhkYzp0aXRsZWZzb3VyY2VpZGM6Zm9ybWF0bWltYWdlL3N2Zyt4bWxxdmFsaWRhdGlvblJlc3VsdHOibmFjdGl2ZU1hbmlmZXN0o2dzdWNjZXNzhqNkY29kZXgdY2xhaW1TaWduYXR1cmUuaW5zaWRlVmFsaWRpdHljdXJseE1zZWxmI2p1bWJmPS9jMnBhL3VybjpjMnBhOjI4YjkxYzQzLWQzODktNDc1My1iYTFmLTg2ZWNlNmEwMWVmMS9jMnBhLnNpZ25hdHVyZWtleHBsYW5hdGlvbnVjbGFpbSBzaWduYXR1cmUgdmFsaWSjZGNvZGV4GGNsYWltU2lnbmF0dXJlLnZhbGlkYXRlZGN1cmx4TXNlbGYjanVtYmY9L2MycGEvdXJuOmMycGE6MjhiOTFjNDMtZDM4OS00NzUzLWJhMWYtODZlY2U2YTAxZWYxL2MycGEuc2lnbmF0dXJla2V4cGxhbmF0aW9udWNsYWltIHNpZ25hdHVyZSB2YWxpZKNkY29kZXgZYXNzZXJ0aW9uLmhhc2hlZFVSSS5tYXRjaGN1cmx4XnNlbGYjanVtYmY9L2MycGEvdXJuOmMycGE6MjhiOTFjNDMtZDM4OS00NzUzLWJhMWYtODZlY2U2YTAxZWYxL2MycGEuYXNzZXJ0aW9ucy9jMnBhLmFjdGlvbnMudjJrZXhwbGFuYXRpb254Pmhhc2hlZCB1cmkgbWF0Y2hlZDogc2VsZiNqdW1iZj1jMnBhLmFzc2VydGlvbnMvYzJwYS5hY3Rpb25zLnYyo2Rjb2RleBlhc3NlcnRpb24uaGFzaGVkVVJJLm1hdGNoY3VybHhdc2VsZiNqdW1iZj0vYzJwYS91cm46YzJwYToyOGI5MWM0My1kMzg5LTQ3NTMtYmExZi04NmVjZTZhMDFlZjEvYzJwYS5hc3NlcnRpb25zL2MycGEuaGFzaC5kYXRha2V4cGxhbmF0aW9ueD1oYXNoZWQgdXJpIG1hdGNoZWQ6IHNlbGYjanVtYmY9YzJwYS5hc3NlcnRpb25zL2MycGEuaGFzaC5kYXRho2Rjb2RleBlhc3NlcnRpb24uaGFzaGVkVVJJLm1hdGNoY3VybHhhc2VsZiNqdW1iZj0vYzJwYS91cm46YzJwYToyOGI5MWM0My1kMzg5LTQ3NTMtYmExZi04NmVjZTZhMDFlZjEvYzJwYS5hc3NlcnRpb25zL2MycGEuaW5ncmVkaWVudC52M2tleHBsYW5hdGlvbnhBaGFzaGVkIHVyaSBtYXRjaGVkOiBzZWxmI2p1bWJmPWMycGEuYXNzZXJ0aW9ucy9jMnBhLmluZ3JlZGllbnQudjOjZGNvZGV4GGFzc2VydGlvbi5kYXRhSGFzaC5tYXRjaGN1cmx4XXNlbGYjanVtYmY9L2MycGEvdXJuOmMycGE6MjhiOTFjNDMtZDM4OS00NzUzLWJhMWYtODZlY2U2YTAxZWYxL2MycGEuYXNzZXJ0aW9ucy9jMnBhLmhhc2guZGF0YWtleHBsYW5hdGlvbm9kYXRhIGhhc2ggdmFsaWRtaW5mb3JtYXRpb25hbIBnZmFpbHVyZYGjZGNvZGV4G3NpZ25pbmdDcmVkZW50aWFsLnVudHJ1c3RlZGN1cmx4TXNlbGYjanVtYmY9L2MycGEvdXJuOmMycGE6MjhiOTFjNDMtZDM4OS00NzUzLWJhMWYtODZlY2U2YTAxZWYxL2MycGEuc2lnbmF0dXJla2V4cGxhbmF0aW9ueB1zaWduaW5nIGNlcnRpZmljYXRlIHVudHJ1c3RlZHBpbmdyZWRpZW50RGVsdGFzgaJ2aW5ncmVkaWVudEFzc2VydGlvblVSSXhhc2VsZiNqdW1iZj0vYzJwYS91cm46YzJwYToyOGI5MWM0My1kMzg5LTQ3NTMtYmExZi04NmVjZTZhMDFlZjEvYzJwYS5hc3NlcnRpb25zL2MycGEuaW5ncmVkaWVudC52M3B2YWxpZGF0aW9uRGVsdGFzo2dzdWNjZXNzgaNkY29kZXgdaW5ncmVkaWVudC5tYW5pZmVzdC52YWxpZGF0ZWRjdXJseD5zZWxmI2p1bWJmPS9jMnBhL3VybjpjMnBhOjE4YjU0MWEwLTEwMmYtNDI3ZC05ZmY1LWVlZjg2YTM4YWJiOWtleHBsYW5hdGlvbndpbmdyZWRpZW50IGhhc2ggbWF0Y2hlZG1pbmZvcm1hdGlvbmFsgGdmYWlsdXJlgGppbnN0YW5jZUlEeCx4bXA6aWlkOjczMmUxODlkLTZlOTMtNDlmZi1hOTQ4LWQ2NzhiNTkyYWJkMm5hY3RpdmVNYW5pZmVzdKNjdXJseD5zZWxmI2p1bWJmPS9jMnBhL3VybjpjMnBhOjI4YjkxYzQzLWQzODktNDc1My1iYTFmLTg2ZWNlNmEwMWVmMWNhbGdmc2hhMjU2ZGhhc2hYIHMPM9qrGzHwpPqZayqDFv6H7x2NwdGyPZqOtd5iJivnbmNsYWltU2lnbmF0dXJlo2N1cmx4TXNlbGYjanVtYmY9L2MycGEvdXJuOmMycGE6MjhiOTFjNDMtZDM4OS00NzUzLWJhMWYtODZlY2U2YTAxZWYxL2MycGEuc2lnbmF0dXJlY2FsZ2ZzaGEyNTZkaGFzaFggLKMu6oA8o6a0SyefI41MAOTDY+IHWoipn3zfJRBRn9MAAAHuanVtYgAAAEFqdW1kY2JvcgARABCAAACqADibcRNjMnBhLmFjdGlvbnMudjIAAAAAGGMyc2i19QN8fqxGLrj7J5fy51UjAAABpWNib3KhZ2FjdGlvbnOComZhY3Rpb25rYzJwYS5vcGVuZWRqcGFyYW1ldGVyc6FraW5ncmVkaWVudHOBomN1cmx4LXNlbGYjanVtYmY9YzJwYS5hc3NlcnRpb25zL2MycGEuaW5ncmVkaWVudC52M2RoYXNoWCBXqK1obJt0b5ehhasqnug3dDhMHp68uc74R0R11c7TsaRmYWN0aW9ubGMycGEuY3JlYXRlZGpwYXJhbWV0ZXJzoWtpbmdyZWRpZW50c4GiY3VybHgtc2VsZiNqdW1iZj1jMnBhLmFzc2VydGlvbnMvYzJwYS5pbmdyZWRpZW50LnYzZGhhc2hYIFeorWhsm3Rvl6GFqyqe6Dd0OEwenry5zvhHRHXVztOxcWRpZ2l0YWxTb3VyY2VUeXBleEFodHRwOi8vY3YuaXB0Yy5vcmcvbmV3c2NvZGVzL2RpZ2l0YWxzb3VyY2V0eXBlL2NvbXBvc2l0ZVN5bnRoZXRpY2tkZXNjcmlwdGlvbngfQ29tcG9zZWQgaW4gdGhlIFJlY3JhZnQgZWRpdG9yLgAAAMRqdW1iAAAAQGp1bWRjYm9yABEAEIAAAKoAOJtxE2MycGEuaGFzaC5kYXRhAAAAABhjMnNoyBvicyRdVymTdCjh/6GNDQAAAHxjYm9ypWpleGNsdXNpb25zgaJlc3RhcnQY6GZsZW5ndGgZTpxkbmFtZW5qdW1iZiBtYW5pZmVzdGNhbGdmc2hhMjU2ZGhhc2hYICClnAchTi7i2qVS9OkeEvrf87PkrIdSKKczhmV7bUugY3BhZEkAAAAAAAAAAAAAAAKWanVtYgAAACdqdW1kYzJjbAARABCAAACqADibcQNjMnBhLmNsYWltLnYyAAAAAmdjYm9yp2ppbnN0YW5jZUlEeCx4bXA6aWlkOmYxYmZlZTRkLTg1M2EtNDA0OC04MDNjLTQ0ODM0ODdmOWQ0MXRjbGFpbV9nZW5lcmF0b3JfaW5mb6NkbmFtZWpyZWNyYWZ0LmFpZ3ZlcnNpb254KDgxY2U4MmUyYzVjM2NiZmJlOGM2ZmJlMTc5ZDVmOGQ5MWM0MDljZTF3b3JnLmNvbnRlbnRhdXRoLmMycGFfcnNmMC45MC43aXNpZ25hdHVyZXhNc2VsZiNqdW1iZj0vYzJwYS91cm46YzJwYTowYWQ4MDIxYS02ZmRlLTRiZjEtYTYyMC02NWU2OTdiYzk0ZjQvYzJwYS5zaWduYXR1cmVyY3JlYXRlZF9hc3NlcnRpb25zgqJjdXJseCpzZWxmI2p1bWJmPWMycGEuYXNzZXJ0aW9ucy9jMnBhLmFjdGlvbnMudjJkaGFzaFggxS+48iR8OQY1Tb+oVx3nbnTR31KkwCiRyKzyc8MUjqOiY3VybHgpc2VsZiNqdW1iZj1jMnBhLmFzc2VydGlvbnMvYzJwYS5oYXNoLmRhdGFkaGFzaFggcCLprwr4ynoi2H5INmHa2C1n+Pc6mNYjlFmS/Tx0RoxzZ2F0aGVyZWRfYXNzZXJ0aW9uc4GiY3VybHgtc2VsZiNqdW1iZj1jMnBhLmFzc2VydGlvbnMvYzJwYS5pbmdyZWRpZW50LnYzZGhhc2hYIFeorWhsm3Rvl6GFqyqe6Dd0OEwenry5zvhHRHXVztOxaGRjOnRpdGxlbVJlY3JhZnQgSW1hZ2VjYWxnZnNoYTI1NgAAB9xqdW1iAAAAKGp1bWRjMmNzABEAEIAAAKoAOJtxA2MycGEuc2lnbmF0dXJlAAAAB6xjYm9y0oRZA7CiASYYIYJZAecwggHjMIIBiaADAgECAgkAt95aY0NRbnowCgYIKoZIzj0EAwIwQDEfMB0GA1UEAwwWUmVjcmFmdCBTdGFnaW5nIERldiBDQTEQMA4GA1UECgwHUmVjcmFmdDELMAkGA1UEBhMCVVMwHhcNMjYwNjEyMTk0MzUwWhcNMjcwNjEyMTk0MzUwWjA3MQswCQYDVQQGEwJVUzETMBEGA1UEChMKUmVjcmFmdCBBSTETMBEGA1UEAxMKcmVjcmFmdC5haTBZMBMGByqGSM49AgEGCCqGSM49AwEHA0IABEppNVsAKyD8N4bct47Fh0gP9UDoQUbvcTo6Sdv4oiIIUnKBFTPi543bP+3aphvoIhS9LxG+A6KIKV+iqxi3DzWjdTBzMAwGA1UdEwEB/wQCMAAwDgYDVR0PAQH/BAQDAgbAMBMGA1UdJQQMMAoGCCsGAQUFBwMEMB0GA1UdDgQWBBQvMekF6f3pIvXLgg8drwyQyyFd/TAfBgNVHSMEGDAWgBQCCyo4Gsqql0r/+b+TFmjtlHh5tzAKBggqhkjOPQQDAgNIADBFAiBTyEpbRpe++TxJCBUU2RrHr1ib1p7waxPZFlNDD4HnUAIhALQPgGQShEPg3SvZlGQ3LQdlpbdYgLL9BkY33mKUXjLMWQG9MIIBuTCCAV+gAwIBAgIJAJz5aDtPoBNvMAoGCCqGSM49BAMCMEAxHzAdBgNVBAMMFlJlY3JhZnQgU3RhZ2luZyBEZXYgQ0ExEDAOBgNVBAoMB1JlY3JhZnQxCzAJBgNVBAYTAlVTMB4XDTI2MDYxMjE5NDAxNloXDTI4MDYxMTE5NDAxNlowQDEfMB0GA1UEAwwWUmVjcmFmdCBTdGFnaW5nIERldiBDQTEQMA4GA1UECgwHUmVjcmFmdDELMAkGA1UEBhMCVVMwWTATBgcqhkjOPQIBBggqhkjOPQMBBwNCAARD0hAGVxVspoo9itBJ86Ev/TSzvFQMLtGKci4s78jWT33L3KHqhYX2Q/Fo/63HW/U944vfKtWq4nvfQfRkaIPKo0IwQDAPBgNVHRMBAf8EBTADAQH/MA4GA1UdDwEB/wQEAwIBhjAdBgNVHQ4EFgQUAgsqOBrKqpdK//m/kxZo7ZR4ebcwCgYIKoZIzj0EAwIDSAAwRQIgVDA0iYuVgN5CGOAX5mKpNuBy7NKqY4nDdDaVD+G7zcUCIQD07xwub/F+hUuoHiO11u4fOLdYv6nZE34NEaTClizBW6FjcGFkWQOkAAAAAAAAAAAAAAAAAAAAAAAAAAAAAAAAAAAAAAAAAAAAAAAAAAAAAAAAAAAAAAAAAAAAAAAAAAAAAAAAAAAAAAAAAAAAAAAAAAAAAAAAAAAAAAAAAAAAAAAAAAAAAAAAAAAAAAAAAAAAAAAAAAAAAAAAAAAAAAAAAAAAAAAAAAAAAAAAAAAAAAAAAAAAAAAAAAAAAAAAAAAAAAAAAAAAAAAAAAAAAAAAAAAAAAAAAAAAAAAAAAAAAAAAAAAAAAAAAAAAAAAAAAAAAAAAAAAAAAAAAAAAAAAAAAAAAAAAAAAAAAAAAAAAAAAAAAAAAAAAAAAAAAAAAAAAAAAAAAAAAAAAAAAAAAAAAAAAAAAAAAAAAAAAAAAAAAAAAAAAAAAAAAAAAAAAAAAAAAAAAAAAAAAAAAAAAAAAAAAAAAAAAAAAAAAAAAAAAAAAAAAAAAAAAAAAAAAAAAAAAAAAAAAAAAAAAAAAAAAAAAAAAAAAAAAAAAAAAAAAAAAAAAAAAAAAAAAAAAAAAAAAAAAAAAAAAAAAAAAAAAAAAAAAAAAAAAAAAAAAAAAAAAAAAAAAAAAAAAAAAAAAAAAAAAAAAAAAAAAAAAAAAAAAAAAAAAAAAAAAAAAAAAAAAAAAAAAAAAAAAAAAAAAAAAAAAAAAAAAAAAAAAAAAAAAAAAAAAAAAAAAAAAAAAAAAAAAAAAAAAAAAAAAAAAAAAAAAAAAAAAAAAAAAAAAAAAAAAAAAAAAAAAAAAAAAAAAAAAAAAAAAAAAAAAAAAAAAAAAAAAAAAAAAAAAAAAAAAAAAAAAAAAAAAAAAAAAAAAAAAAAAAAAAAAAAAAAAAAAAAAAAAAAAAAAAAAAAAAAAAAAAAAAAAAAAAAAAAAAAAAAAAAAAAAAAAAAAAAAAAAAAAAAAAAAAAAAAAAAAAAAAAAAAAAAAAAAAAAAAAAAAAAAAAAAAAAAAAAAAAAAAAAAAAAAAAAAAAAAAAAAAAAAAAAAAAAAAAAAAAAAAAAAAAAAAAAAAAAAAAAAAAAAAAAAAAAAAAAAAAAAAAAAAAAAAAAAAAAAAAAAAAAAAAAAAAAAAAAAAAAAAAAAAAAAAAAAAAAAAAAAAAAAAAAAAAAAAAAAAAAAAAAAAAAAAAAAAAAAAAAAAAAAAAAAAAAAAAAAAAAAAAAAAAAAAAAAAAAAAAAAAAAAAAAAAAAAAAAAAAAAAAAAAAAAAAAAAAAAAAAAAAAAAAAAAAAAAAAAAAAD2WEB4Br4+sUBg41dMZh8F1YPssPRkpYQL7V3phH9wyEAmzyJQKsVAYMPsgTWH44N1mIuLHscMv4DXsws8Da9C12bj</c2pa:manifest></metadata><path fill="#33BDE6" d="M283.775 161.73C288.145 158.635 307.085 142.728 311.487 143.597C311.803 143.66 311.843 143.628 312.021 143.883C313.299 145.717 311.292 159.231 310.578 161.772C309.532 165.494 307.487 168.8 305.624 172.155C308.009 173.43 310.462 175.088 312.775 176.504C315.597 178.231 326.314 183.519 325.589 187.377C323.902 189.149 317.167 187.773 314.899 187.199C316.769 188.677 320.272 192.409 320.947 194.667C320.78 195.62 321.014 195.256 320.238 195.807C315.516 196.641 305.762 191.002 302.162 188.014L301.998 188.166C302.933 190.788 304.684 190.978 306.314 194.092C309.898 200.936 311.873 215.635 308.313 222.693C304.062 231.118 289.796 240.385 281.234 243.928C284.812 243.507 291.172 241.66 294.174 244.121C299.189 248.161 295.787 257.561 294.175 262.964C291.82 270.856 288.381 276.32 289.158 285C289.742 291.523 300.477 314.624 296.768 319.083C291.291 321.8 264.803 315.595 257.856 313.95C255.78 313.458 248.654 307.735 247.617 305.672C245.888 302.232 247.934 297.109 251.571 295.52C251.923 293.124 252.222 291.639 252.828 289.294C250.886 287.465 250.441 286.906 252.028 284.58C251.954 282.465 251.497 270.882 250.472 269.749C242.024 276.985 235.159 270.428 234.493 261.096C233.129 252.426 234.763 235.629 245.649 233.777C241.404 228.543 236.49 220.529 237.128 213.447C237.815 209.282 241.329 201.653 244.281 198.749C247.568 195.515 252.454 189.432 255.79 186.843C261.581 182.349 272.104 178.502 279.522 179.272C280.108 178.695 281.614 177.79 282.37 177.298C276.987 177.722 270.647 177.162 265.21 177.108C264.233 177.098 263.766 176.644 263.196 175.922C265.371 171.931 271.815 171.081 275.867 170.69C274.062 168.714 268.481 163.911 266.171 162.469C265.363 161.799 264.957 161.602 264.62 160.659C264.717 159.77 264.535 160.14 265.195 159.519C269.546 158.161 279.221 161.383 283.775 161.73Z"/><path fill="#FEFCEB" d="M248.846 250.857C248.514 247.25 248.161 236.854 247.327 234.344C244.897 227.56 238.678 221.724 239.075 213.941C239.47 210.466 242.035 204.681 244.173 201.992C247.478 197.835 252.783 192.36 256.585 188.771C261.18 184.433 272.195 180.503 278.442 181.013C277.564 182.548 274.659 186.647 276.59 187.975C278.796 187.568 281.517 186.273 283.733 185.668C286.558 184.898 289.768 184.295 292.66 183.798C293.021 186.924 295.79 195.476 298.942 196.474C301.28 195.98 301.047 193.178 301.186 191.213C302.094 192.835 304.114 194.534 304.601 195.618C307.613 202.328 308.895 211.159 307.407 218.408C304.833 227.801 294.586 233.256 287.027 238.506C284.061 240.567 276.966 242.737 273.152 242.704C273.131 242.704 271.945 242.339 271.879 242.319C270.929 242.484 269.708 243.651 269.882 244.676C271.245 245.656 283.306 245.991 285.389 245.86C283.045 249.275 280.964 251.395 277.97 254.281C271.722 251.795 262.997 251.256 256.545 252.9C254.202 251.991 251.375 251.533 248.846 250.857Z"/><path fill="#33BDE6" d="M264.039 191.23C267.716 192.072 271.012 194.106 273.414 197.015C272.467 198.007 271.691 198.642 270.649 199.51C269.358 200.02 265.993 197.849 263.353 197.347C262.126 194.531 261.384 193.437 264.039 191.23Z"/><path fill="#33BDE6" d="M290.04 206.044C291.668 205.963 299.823 206.543 299.351 208.925C298.595 209.455 298.662 209.249 297.459 209.151C297.247 209.557 298.259 211.422 298.542 212.557C298.27 213.183 298.29 213.154 297.829 213.657C296.897 213.815 292.676 211.995 291.668 211.399C289.156 209.916 288.362 208.506 290.04 206.044Z"/><path fill="#33BDE6" d="M264.65 214.092C269.954 213.709 272.969 215.436 277.556 217.959C278.429 217.285 279.007 216.7 280.065 216.452L280.408 216.67C280.271 217.454 280.26 217.499 279.763 218.133L278.395 219.874C277.732 221.159 278.109 221.649 276.881 222.816L276.491 222.78C275.971 221.666 276.025 220.419 276.055 219.228C274.156 218.146 271.831 216.808 269.769 216.019C268.445 215.512 265.153 215.787 264.307 214.745L264.65 214.092Z"/><path fill="#FEFCEB" d="M289.324 244.812C290.03 244.751 291.217 244.607 291.81 244.932C299.963 249.401 288.744 265.306 286.406 270.172C284.494 271.117 283.648 272.606 282.833 272.974C276.541 275.816 264.617 273.743 258.564 272.118C256.678 271.524 253.673 270.127 251.621 269.337C257.024 267.763 262.502 264.499 268.105 263.294C270.082 262.869 274.041 263.929 275.874 262.32C277.243 260.995 278.532 257.491 279.749 256.23C282.58 253.299 286.409 247.145 289.324 244.812Z"/><path fill="#FEFCEB" d="M243.789 260.688C245.761 259.375 247.046 259.272 247.912 258.703C252.864 255.448 257.753 253.774 263.741 253.97C265.758 254.036 268.145 254.277 270.206 254.266C270.446 254.112 271.071 253.678 271.343 253.71C272.677 253.867 276.373 254.918 277.211 255.757C272.663 259.714 272.712 260.458 266.763 262.043C264.096 262.753 257.375 265.224 255.097 266.658C253.539 267.107 248.95 269.079 248.221 269.048C247.932 268.416 247.958 268.309 247.437 267.88C246.046 268.105 244.927 269.99 244.061 271.144C237.936 268.329 237.487 266.264 242.699 261.659L243.789 260.688Z"/><path fill="#FEFCEB" d="M254.377 292.353C258.145 293.005 262.862 293.587 266.475 294.453C273.243 296.075 279.737 298.225 286.753 298.843C288.973 299.039 289.45 298.408 290.671 298.431C291.55 300.323 292.9 305.5 293.532 307.737C290.801 307.234 287.691 307.103 285.028 306.493C274.396 304.06 263.386 301.666 253.527 296.954C253.799 295.418 254.082 293.885 254.377 292.353Z"/><path fill="#FEFCEB" d="M254.003 272.321C267.049 277.685 273.439 276.304 287.008 276.145C286.951 280.209 286.204 282.266 286.666 286.668C285.926 287.25 282.098 286.475 281.045 286.43C274.525 286.149 269.49 286.257 263.681 282.825C260.511 280.952 258.017 278.741 254.098 278.503C254.3 276.506 254.205 274.317 254.003 272.321Z"/><path fill="#FEFCEB" d="M236.134 259.55C235.692 252.741 236.326 243.619 240.875 238.041C241.521 237.25 242.976 236.332 243.864 235.744C244.058 240.232 244.585 238.378 245.877 242.315C246.444 244.043 246.686 248.905 246.832 250.929C244.275 250.992 236.517 251.02 239.548 257.075C239.883 257.744 242.419 258.369 242.908 259.469C240.097 261.674 239.101 262.817 237.297 265.835L236.134 259.55Z"/><path fill="#FEFCEB" d="M290.893 158.945C291.278 158.98 298.259 166.726 305.482 167.107L303.749 171.014C302.629 170.99 301.413 170.871 300.288 170.784C300.123 170.768 299.709 170.64 299.531 170.591C298.209 168.471 295.636 168.322 293.297 167.44C290.312 166.314 287.886 165.198 285.108 163.636C286.987 162.305 289.098 160.446 290.893 158.945Z"/><path fill="#FEFCEB" d="M309.7 146.231C310.715 147.515 308.988 157.133 308.876 159.716C306.466 157.08 306.388 157.216 302.941 155.975C301.119 155.436 300.007 154.919 298.314 154.09C302.314 149.801 304.507 149.117 309.7 146.231Z"/><path fill="#FEFCEB" d="M243.283 253.046C244.484 252.927 245.719 252.932 246.929 252.909C247.149 254.023 247.325 255.25 247.511 256.38C246.96 256.925 246.072 257.51 245.416 257.976C244 257.163 240.527 256.053 241.062 254.189C241.842 253.421 242.201 253.4 243.283 253.046Z"/></svg>