<?xml version="1.0" encoding="utf-8" ?><svg xmlns="http://www.w3.org/2000/svg" xmlns:xlink="http://www.w3.org/1999/xlink" width="512" height="512" viewBox="0 0 512 512" xmlns:c2pa="http://c2pa.org/manifest"><metadata><c2pa:manifest>AAA69Wp1bWIAAAAeanVtZGMycGEAEQAQgAAAqgA4m3EDYzJwYQAAAA6CanVtYgAAAEdqdW1kYzJtYQARABCAAACqADibcQN1cm46YzJwYTowZDU2ZTg2ZC0wMmVkLTQxZjktOWY2My00ZGE3NjFiN2U0ZTIAAAADs2p1bWIAAAApanVtZGMyYXMAEQAQgAAAqgA4m3EDYzJwYS5hc3NlcnRpb25zAAAAAMlqdW1iAAAARGp1bWRjYm9yABEAEIAAAKoAOJtxE2MycGEuaW5ncmVkaWVudC52MwAAAAAYYzJzaOXt5S5oqT1NSKQO3UPGHJwAAAB9Y2JvcqRscmVsYXRpb25zaGlwaHBhcmVudE9maGRjOnRpdGxlZnNvdXJjZWlkYzpmb3JtYXRqaW1hZ2Uvd2VicGppbnN0YW5jZUlEeCx4bXA6aWlkOjAxNTRmOGZhLTM1ZjEtNDFmOS1iNWVlLTRhODU2MzE4OGFkOAAAAfVqdW1iAAAAQWp1bWRjYm9yABEAEIAAAKoAOJtxE2MycGEuYWN0aW9ucy52MgAAAAAYYzJzaB5bab4SGq9cU1dMeVW7Rx8AAAGsY2JvcqFnYWN0aW9uc4KiZmFjdGlvbmtjMnBhLm9wZW5lZGpwYXJhbWV0ZXJzoWtpbmdyZWRpZW50c4GiY3VybHgtc2VsZiNqdW1iZj1jMnBhLmFzc2VydGlvbnMvYzJwYS5pbmdyZWRpZW50LnYzZGhhc2hYIMaKnXpybm9Y81/MrpXzcpzSZzgYWPC0qMWnCDe47KWYpGZhY3Rpb25rYzJwYS5lZGl0ZWRqcGFyYW1ldGVyc6FraW5ncmVkaWVudHOBomN1cmx4LXNlbGYjanVtYmY9YzJwYS5hc3NlcnRpb25zL2MycGEuaW5ncmVkaWVudC52M2RoYXNoWCDGip16cm5vWPNfzK6V83Kc0mc4GFjwtKjFpwg3uOylmHFkaWdpdGFsU291cmNlVHlwZXhTaHR0cDovL2N2LmlwdGMub3JnL25ld3Njb2Rlcy9kaWdpdGFsc291cmNldHlwZS9jb21wb3NpdGVXaXRoVHJhaW5lZEFsZ29yaXRobWljTWVkaWFrZGVzY3JpcHRpb252Q3JlYXRlZCBieSBSZWNyYWZ0IEFJLgAAAMRqdW1iAAAAQGp1bWRjYm9yABEAEIAAAKoAOJtxE2MycGEuaGFzaC5kYXRhAAAAABhjMnNontp3IndNx6jX04SbtXP78gAAAHxjYm9ypWpleGNsdXNpb25zgaJlc3RhcnQZrBJmbGVuZ3RoGQ6wZG5hbWVuanVtYmYgbWFuaWZlc3RjYWxnZnNoYTI1NmRoYXNoWCBwoBS5R5QU4pSpIMr9QjXWqV77Hagi2c+FBeOdoV9RmGNwYWRIAAAAAAAAAAAAAAKkanVtYgAAACdqdW1kYzJjbAARABCAAACqADibcQNjMnBhLmNsYWltLnYyAAAAAnVjYm9yp2ppbnN0YW5jZUlEeCx4bXA6aWlkOjY1ODIyMzQyLWEwMjItNDlhNC1hNTZiLTgxOTU0OWIyMzE1OXRjbGFpbV9nZW5lcmF0b3JfaW5mb6NkbmFtZWpyZWNyYWZ0LmFpZ3ZlcnNpb254KDgxY2U4MmUyYzVjM2NiZmJlOGM2ZmJlMTc5ZDVmOGQ5MWM0MDljZTF3b3JnLmNvbnRlbnRhdXRoLmMycGFfcnNmMC45MC43aXNpZ25hdHVyZXhNc2VsZiNqdW1iZj0vYzJwYS91cm46YzJwYTowZDU2ZTg2ZC0wMmVkLTQxZjktOWY2My00ZGE3NjFiN2U0ZTIvYzJwYS5zaWduYXR1cmVyY3JlYXRlZF9hc3NlcnRpb25zgqJjdXJseCpzZWxmI2p1bWJmPWMycGEuYXNzZXJ0aW9ucy9jMnBhLmFjdGlvbnMudjJkaGFzaFggZerAdCGwhL3QBB+p36MCmHiCHiJRZP1F+N1zenp5OySiY3VybHgpc2VsZiNqdW1iZj1jMnBhLmFzc2VydGlvbnMvYzJwYS5oYXNoLmRhdGFkaGFzaFggdM+979rUqa7YIpXCGXNzalLwZB/BPcHtvZWcdIOa0NlzZ2F0aGVyZWRfYXNzZXJ0aW9uc4GiY3VybHgtc2VsZiNqdW1iZj1jMnBhLmFzc2VydGlvbnMvYzJwYS5pbmdyZWRpZW50LnYzZGhhc2hYIMaKnXpybm9Y81/MrpXzcpzSZzgYWPC0qMWnCDe47KWYaGRjOnRpdGxleBpSZWNyYWZ0IEFJIEdlbmVyYXRlZCBJbWFnZWNhbGdmc2hhMjU2AAAH3Gp1bWIAAAAoanVtZGMyY3MAEQAQgAAAqgA4m3EDYzJwYS5zaWduYXR1cmUAAAAHrGNib3LShFkDsKIBJhghglkB5zCCAeMwggGJoAMCAQICCQC33lpjQ1FuejAKBggqhkjOPQQDAjBAMR8wHQYDVQQDDBZSZWNyYWZ0IFN0YWdpbmcgRGV2IENBMRAwDgYDVQQKDAdSZWNyYWZ0MQswCQYDVQQGEwJVUzAeFw0yNjA2MTIxOTQzNTBaFw0yNzA2MTIxOTQzNTBaMDcxCzAJBgNVBAYTAlVTMRMwEQYDVQQKEwpSZWNyYWZ0IEFJMRMwEQYDVQQDEwpyZWNyYWZ0LmFpMFkwEwYHKoZIzj0CAQYIKoZIzj0DAQcDQgAESmk1WwArIPw3hty3jsWHSA/1QOhBRu9xOjpJ2/iiIghScoEVM+Lnjds/7dqmG+giFL0vEb4DoogpX6KrGLcPNaN1MHMwDAYDVR0TAQH/BAIwADAOBgNVHQ8BAf8EBAMCBsAwEwYDVR0lBAwwCgYIKwYBBQUHAwQwHQYDVR0OBBYEFC8x6QXp/eki9cuCDx2vDJDLIV39MB8GA1UdIwQYMBaAFAILKjgayqqXSv/5v5MWaO2UeHm3MAoGCCqGSM49BAMCA0gAMEUCIFPISltGl775PEkIFRTZGsevWJvWnvBrE9kWU0MPgedQAiEAtA+AZBKEQ+DdK9mUZDctB2Wlt1iAsv0GRjfeYpReMsxZAb0wggG5MIIBX6ADAgECAgkAnPloO0+gE28wCgYIKoZIzj0EAwIwQDEfMB0GA1UEAwwWUmVjcmFmdCBTdGFnaW5nIERldiBDQTEQMA4GA1UECgwHUmVjcmFmdDELMAkGA1UEBhMCVVMwHhcNMjYwNjEyMTk0MDE2WhcNMjgwNjExMTk0MDE2WjBAMR8wHQYDVQQDDBZSZWNyYWZ0IFN0YWdpbmcgRGV2IENBMRAwDgYDVQQKDAdSZWNyYWZ0MQswCQYDVQQGEwJVUzBZMBMGByqGSM49AgEGCCqGSM49AwEHA0IABEPSEAZXFWymij2K0EnzoS/9NLO8VAwu0YpyLizvyNZPfcvcoeqFhfZD8Wj/rcdb9T3ji98q1arie99B9GRog8qjQjBAMA8GA1UdEwEB/wQFMAMBAf8wDgYDVR0PAQH/BAQDAgGGMB0GA1UdDgQWBBQCCyo4Gsqql0r/+b+TFmjtlHh5tzAKBggqhkjOPQQDAgNIADBFAiBUMDSJi5WA3kIY4BfmYqk24HLs0qpjicN0NpUP4bvNxQIhAPTvHC5v8X6FS6geI7XW7h84t1i/qdkTfg0RpMKWLMFboWNwYWRZA6QAAAAAAAAAAAAAAAAAAAAAAAAAAAAAAAAAAAAAAAAAAAAAAAAAAAAAAAAAAAAAAAAAAAAAAAAAAAAAAAAAAAAAAAAAAAAAAAAAAAAAAAAAAAAAAAAAAAAAAAAAAAAAAAAAAAAAAAAAAAAAAAAAAAAAAAAAAAAAAAAAAAAAAAAAAAAAAAAAAAAAAAAAAAAAAAAAAAAAAAAAAAAAAAAAAAAAAAAAAAAAAAAAAAAAAAAAAAAAAAAAAAAAAAAAAAAAAAAAAAAAAAAAAAAAAAAAAAAAAAAAAAAAAAAAAAAAAAAAAAAAAAAAAAAAAAAAAAAAAAAAAAAAAAAAAAAAAAAAAAAAAAAAAAAAAAAAAAAAAAAAAAAAAAAAAAAAAAAAAAAAAAAAAAAAAAAAAAAAAAAAAAAAAAAAAAAAAAAAAAAAAAAAAAAAAAAAAAAAAAAAAAAAAAAAAAAAAAAAAAAAAAAAAAAAAAAAAAAAAAAAAAAAAAAAAAAAAAAAAAAAAAAAAAAAAAAAAAAAAAAAAAAAAAAAAAAAAAAAAAAAAAAAAAAAAAAAAAAAAAAAAAAAAAAAAAAAAAAAAAAAAAAAAAAAAAAAAAAAAAAAAAAAAAAAAAAAAAAAAAAAAAAAAAAAAAAAAAAAAAAAAAAAAAAAAAAAAAAAAAAAAAAAAAAAAAAAAAAAAAAAAAAAAAAAAAAAAAAAAAAAAAAAAAAAAAAAAAAAAAAAAAAAAAAAAAAAAAAAAAAAAAAAAAAAAAAAAAAAAAAAAAAAAAAAAAAAAAAAAAAAAAAAAAAAAAAAAAAAAAAAAAAAAAAAAAAAAAAAAAAAAAAAAAAAAAAAAAAAAAAAAAAAAAAAAAAAAAAAAAAAAAAAAAAAAAAAAAAAAAAAAAAAAAAAAAAAAAAAAAAAAAAAAAAAAAAAAAAAAAAAAAAAAAAAAAAAAAAAAAAAAAAAAAAAAAAAAAAAAAAAAAAAAAAAAAAAAAAAAAAAAAAAAAAAAAAAAAAAAAAAAAAAAAAAAAAAAAAAAAAAAAAAAAAAAAAAAAAAAAAAAAAAAAAAAAAAAAAAAAAAAAAAAAAAAAAAAAAAAAAAAAAAAAAAAAAAAAAAAAAAAAAAAAAAAAAAAAAAAAAAAAAAAAAAAAAAAAAAAAAAAAAAAAAAAAAAAAAAAAAAAAAAAAAAAAAAAAAAAAAAAAAAAAAAAAAAAAAAAAAAAAAAAAAAAAAAAAAAAAAAAAAAAAAAAAAAAAAAAAAAAPZYQLvonQFvyXxFMEFL0gutpUqBzqUbjiTmxieTzTQXw1Q0NMZHe7urVy4xAbYHGkB3hb0Z5xWt/SuG+jUAR/vwyTAAABZLanVtYgAAAEdqdW1kYzJtYQARABCAAACqADibcQN1cm46YzJwYTo1MDhmNzBhYy0xNTFiLTRlMDctOTE1Zi1lNzQ5NzlmOTIyNDMAAAALfGp1bWIAAAApanVtZGMyYXMAEQAQgAAAqgA4m3EDYzJwYS5hc3NlcnRpb25zAAAACJJqdW1iAAAARGp1bWRjYm9yABEAEIAAAKoAOJtxE2MycGEuaW5ncmVkaWVudC52MwAAAAAYYzJzaEMKMtZ7TEK7X/LN0fhDzhIAAAhGY2JvcqdscmVsYXRpb25zaGlwaHBhcmVudE9maGRjOnRpdGxlZnNvdXJjZWlkYzpmb3JtYXRqaW1hZ2Uvd2VicHF2YWxpZGF0aW9uUmVzdWx0c6JuYWN0aXZlTWFuaWZlc3SjZ3N1Y2Nlc3OGo2Rjb2RleB1jbGFpbVNpZ25hdHVyZS5pbnNpZGVWYWxpZGl0eWN1cmx4TXNlbGYjanVtYmY9L2MycGEvdXJuOmMycGE6MGQ1NmU4NmQtMDJlZC00MWY5LTlmNjMtNGRhNzYxYjdlNGUyL2MycGEuc2lnbmF0dXJla2V4cGxhbmF0aW9udWNsYWltIHNpZ25hdHVyZSB2YWxpZKNkY29kZXgYY2xhaW1TaWduYXR1cmUudmFsaWRhdGVkY3VybHhNc2VsZiNqdW1iZj0vYzJwYS91cm46YzJwYTowZDU2ZTg2ZC0wMmVkLTQxZjktOWY2My00ZGE3NjFiN2U0ZTIvYzJwYS5zaWduYXR1cmVrZXhwbGFuYXRpb251Y2xhaW0gc2lnbmF0dXJlIHZhbGlko2Rjb2RleBlhc3NlcnRpb24uaGFzaGVkVVJJLm1hdGNoY3VybHhec2VsZiNqdW1iZj0vYzJwYS91cm46YzJwYTowZDU2ZTg2ZC0wMmVkLTQxZjktOWY2My00ZGE3NjFiN2U0ZTIvYzJwYS5hc3NlcnRpb25zL2MycGEuYWN0aW9ucy52MmtleHBsYW5hdGlvbng+aGFzaGVkIHVyaSBtYXRjaGVkOiBzZWxmI2p1bWJmPWMycGEuYXNzZXJ0aW9ucy9jMnBhLmFjdGlvbnMudjKjZGNvZGV4GWFzc2VydGlvbi5oYXNoZWRVUkkubWF0Y2hjdXJseF1zZWxmI2p1bWJmPS9jMnBhL3VybjpjMnBhOjBkNTZlODZkLTAyZWQtNDFmOS05ZjYzLTRkYTc2MWI3ZTRlMi9jMnBhLmFzc2VydGlvbnMvYzJwYS5oYXNoLmRhdGFrZXhwbGFuYXRpb254PWhhc2hlZCB1cmkgbWF0Y2hlZDogc2VsZiNqdW1iZj1jMnBhLmFzc2VydGlvbnMvYzJwYS5oYXNoLmRhdGGjZGNvZGV4GWFzc2VydGlvbi5oYXNoZWRVUkkubWF0Y2hjdXJseGFzZWxmI2p1bWJmPS9jMnBhL3VybjpjMnBhOjBkNTZlODZkLTAyZWQtNDFmOS05ZjYzLTRkYTc2MWI3ZTRlMi9jMnBhLmFzc2VydGlvbnMvYzJwYS5pbmdyZWRpZW50LnYza2V4cGxhbmF0aW9ueEFoYXNoZWQgdXJpIG1hdGNoZWQ6IHNlbGYjanVtYmY9YzJwYS5hc3NlcnRpb25zL2MycGEuaW5ncmVkaWVudC52M6NkY29kZXgYYXNzZXJ0aW9uLmRhdGFIYXNoLm1hdGNoY3VybHhdc2VsZiNqdW1iZj0vYzJwYS91cm46YzJwYTowZDU2ZTg2ZC0wMmVkLTQxZjktOWY2My00ZGE3NjFiN2U0ZTIvYzJwYS5hc3NlcnRpb25zL2MycGEuaGFzaC5kYXRha2V4cGxhbmF0aW9ub2RhdGEgaGFzaCB2YWxpZG1pbmZvcm1hdGlvbmFsgGdmYWlsdXJlgaNkY29kZXgbc2lnbmluZ0NyZWRlbnRpYWwudW50cnVzdGVkY3VybHhNc2VsZiNqdW1iZj0vYzJwYS91cm46YzJwYTowZDU2ZTg2ZC0wMmVkLTQxZjktOWY2My00ZGE3NjFiN2U0ZTIvYzJwYS5zaWduYXR1cmVrZXhwbGFuYXRpb254HXNpZ25pbmcgY2VydGlmaWNhdGUgdW50cnVzdGVkcGluZ3JlZGllbnREZWx0YXOBonZpbmdyZWRpZW50QXNzZXJ0aW9uVVJJeGFzZWxmI2p1bWJmPS9jMnBhL3VybjpjMnBhOjBkNTZlODZkLTAyZWQtNDFmOS05ZjYzLTRkYTc2MWI3ZTRlMi9jMnBhLmFzc2VydGlvbnMvYzJwYS5pbmdyZWRpZW50LnYzcHZhbGlkYXRpb25EZWx0YXOjZ3N1Y2Nlc3OAbWluZm9ybWF0aW9uYWyBo2Rjb2RleBxpbmdyZWRpZW50LnVua25vd25Qcm92ZW5hbmNlY3VybHhhc2VsZiNqdW1iZj0vYzJwYS91cm46YzJwYTowZDU2ZTg2ZC0wMmVkLTQxZjktOWY2My00ZGE3NjFiN2U0ZTIvYzJwYS5hc3NlcnRpb25zL2MycGEuaW5ncmVkaWVudC52M2tleHBsYW5hdGlvbngrc291cmNlOiBpbmdyZWRpZW50IGRvZXMgbm90IGhhdmUgcHJvdmVuYW5jZWdmYWlsdXJlgGppbnN0YW5jZUlEeCx4bXA6aWlkOmQzZTRiNGI4LTE4ZjgtNDRmOC05YjE5LTdjYjNiMzIzNzFlNG5hY3RpdmVNYW5pZmVzdKNjdXJseD5zZWxmI2p1bWJmPS9jMnBhL3VybjpjMnBhOjBkNTZlODZkLTAyZWQtNDFmOS05ZjYzLTRkYTc2MWI3ZTRlMmNhbGdmc2hhMjU2ZGhhc2hYIIJ8eRkrtxQg2j3TMSMYsEKK3Llto3D95LNutBGXjS+tbmNsYWltU2lnbmF0dXJlo2N1cmx4TXNlbGYjanVtYmY9L2MycGEvdXJuOmMycGE6MGQ1NmU4NmQtMDJlZC00MWY5LTlmNjMtNGRhNzYxYjdlNGUyL2MycGEuc2lnbmF0dXJlY2FsZ2ZzaGEyNTZkaGFzaFggJchHplSr4bChjFVPwst2ew1WMbtYc/9d4zxfN4Tt8pcAAAH1anVtYgAAAEFqdW1kY2JvcgARABCAAACqADibcRNjMnBhLmFjdGlvbnMudjIAAAAAGGMyc2j8K+GDla8T9p4SNL4ckPILAAABrGNib3KhZ2FjdGlvbnOComZhY3Rpb25rYzJwYS5vcGVuZWRqcGFyYW1ldGVyc6FraW5ncmVkaWVudHOBomN1cmx4LXNlbGYjanVtYmY9YzJwYS5hc3NlcnRpb25zL2MycGEuaW5ncmVkaWVudC52M2RoYXNoWCAr7R0pquMq2Q0BArzB+sjerz41mr6qbUA7ZielWX5O9qRmYWN0aW9ua2MycGEuZWRpdGVkanBhcmFtZXRlcnOha2luZ3JlZGllbnRzgaJjdXJseC1zZWxmI2p1bWJmPWMycGEuYXNzZXJ0aW9ucy9jMnBhLmluZ3JlZGllbnQudjNkaGFzaFggK+0dKarjKtkNAQK8wfrI3q8+NZq+qm1AO2YnpVl+TvZxZGlnaXRhbFNvdXJjZVR5cGV4U2h0dHA6Ly9jdi5pcHRjLm9yZy9uZXdzY29kZXMvZGlnaXRhbHNvdXJjZXR5cGUvY29tcG9zaXRlV2l0aFRyYWluZWRBbGdvcml0aG1pY01lZGlha2Rlc2NyaXB0aW9udkNyZWF0ZWQgYnkgUmVjcmFmdCBBSS4AAADEanVtYgAAAEBqdW1kY2JvcgARABCAAACqADibcRNjMnBhLmhhc2guZGF0YQAAAAAYYzJzaBOzWB7el5e5AAPZbjtbeDsAAAB8Y2JvcqVqZXhjbHVzaW9uc4GiZXN0YXJ0GNlmbGVuZ3RoGTFEZG5hbWVuanVtYmYgbWFuaWZlc3RjYWxnZnNoYTI1NmRoYXNoWCBA+MGApr39QmNjR4LoptspoM5s09x5zB7llA8NGG5cr2NwYWRJAAAAAAAAAAAAAAACpGp1bWIAAAAnanVtZGMyY2wAEQAQgAAAqgA4m3EDYzJwYS5jbGFpbS52MgAAAAJ1Y2JvcqdqaW5zdGFuY2VJRHgseG1wOmlpZDo3ZjcxMWI0NS02YzgyLTRiMjQtODNlNC1lYzZmNDhkMzMxN2F0Y2xhaW1fZ2VuZXJhdG9yX2luZm+jZG5hbWVqcmVjcmFmdC5haWd2ZXJzaW9ueCg4MWNlODJlMmM1YzNjYmZiZThjNmZiZTE3OWQ1ZjhkOTFjNDA5Y2Uxd29yZy5jb250ZW50YXV0aC5jMnBhX3JzZjAuOTAuN2lzaWduYXR1cmV4TXNlbGYjanVtYmY9L2MycGEvdXJuOmMycGE6NTA4ZjcwYWMtMTUxYi00ZTA3LTkxNWYtZTc0OTc5ZjkyMjQzL2MycGEuc2lnbmF0dXJlcmNyZWF0ZWRfYXNzZXJ0aW9uc4KiY3VybHgqc2VsZiNqdW1iZj1jMnBhLmFzc2VydGlvbnMvYzJwYS5hY3Rpb25zLnYyZGhhc2hYICprNct15TQspuRo/MLIZ+9mAKoX1HIvH1ylklnB5ykjomN1cmx4KXNlbGYjanVtYmY9YzJwYS5hc3NlcnRpb25zL2MycGEuaGFzaC5kYXRhZGhhc2hYIAK0GgjSHuuoGz/PuiQRLNL8kYEzg1WPqvMUJqyPFY3Oc2dhdGhlcmVkX2Fzc2VydGlvbnOBomN1cmx4LXNlbGYjanVtYmY9YzJwYS5hc3NlcnRpb25zL2MycGEuaW5ncmVkaWVudC52M2RoYXNoWCAr7R0pquMq2Q0BArzB+sjerz41mr6qbUA7ZielWX5O9mhkYzp0aXRsZXgaUmVjcmFmdCBBSSBHZW5lcmF0ZWQgSW1hZ2VjYWxnZnNoYTI1NgAAB9xqdW1iAAAAKGp1bWRjMmNzABEAEIAAAKoAOJtxA2MycGEuc2lnbmF0dXJlAAAAB6xjYm9y0oRZA7CiASYYIYJZAecwggHjMIIBiaADAgECAgkAt95aY0NRbnowCgYIKoZIzj0EAwIwQDEfMB0GA1UEAwwWUmVjcmFmdCBTdGFnaW5nIERldiBDQTEQMA4GA1UECgwHUmVjcmFmdDELMAkGA1UEBhMCVVMwHhcNMjYwNjEyMTk0MzUwWhcNMjcwNjEyMTk0MzUwWjA3MQswCQYDVQQGEwJVUzETMBEGA1UEChMKUmVjcmFmdCBBSTETMBEGA1UEAxMKcmVjcmFmdC5haTBZMBMGByqGSM49AgEGCCqGSM49AwEHA0IABEppNVsAKyD8N4bct47Fh0gP9UDoQUbvcTo6Sdv4oiIIUnKBFTPi543bP+3aphvoIhS9LxG+A6KIKV+iqxi3DzWjdTBzMAwGA1UdEwEB/wQCMAAwDgYDVR0PAQH/BAQDAgbAMBMGA1UdJQQMMAoGCCsGAQUFBwMEMB0GA1UdDgQWBBQvMekF6f3pIvXLgg8drwyQyyFd/TAfBgNVHSMEGDAWgBQCCyo4Gsqql0r/+b+TFmjtlHh5tzAKBggqhkjOPQQDAgNIADBFAiBTyEpbRpe++TxJCBUU2RrHr1ib1p7waxPZFlNDD4HnUAIhALQPgGQShEPg3SvZlGQ3LQdlpbdYgLL9BkY33mKUXjLMWQG9MIIBuTCCAV+gAwIBAgIJAJz5aDtPoBNvMAoGCCqGSM49BAMCMEAxHzAdBgNVBAMMFlJlY3JhZnQgU3RhZ2luZyBEZXYgQ0ExEDAOBgNVBAoMB1JlY3JhZnQxCzAJBgNVBAYTAlVTMB4XDTI2MDYxMjE5NDAxNloXDTI4MDYxMTE5NDAxNlowQDEfMB0GA1UEAwwWUmVjcmFmdCBTdGFnaW5nIERldiBDQTEQMA4GA1UECgwHUmVjcmFmdDELMAkGA1UEBhMCVVMwWTATBgcqhkjOPQIBBggqhkjOPQMBBwNCAARD0hAGVxVspoo9itBJ86Ev/TSzvFQMLtGKci4s78jWT33L3KHqhYX2Q/Fo/63HW/U944vfKtWq4nvfQfRkaIPKo0IwQDAPBgNVHRMBAf8EBTADAQH/MA4GA1UdDwEB/wQEAwIBhjAdBgNVHQ4EFgQUAgsqOBrKqpdK//m/kxZo7ZR4ebcwCgYIKoZIzj0EAwIDSAAwRQIgVDA0iYuVgN5CGOAX5mKpNuBy7NKqY4nDdDaVD+G7zcUCIQD07xwub/F+hUuoHiO11u4fOLdYv6nZE34NEaTClizBW6FjcGFkWQOkAAAAAAAAAAAAAAAAAAAAAAAAAAAAAAAAAAAAAAAAAAAAAAAAAAAAAAAAAAAAAAAAAAAAAAAAAAAAAAAAAAAAAAAAAAAAAAAAAAAAAAAAAAAAAAAAAAAAAAAAAAAAAAAAAAAAAAAAAAAAAAAAAAAAAAAAAAAAAAAAAAAAAAAAAAAAAAAAAAAAAAAAAAAAAAAAAAAAAAAAAAAAAAAAAAAAAAAAAAAAAAAAAAAAAAAAAAAAAAAAAAAAAAAAAAAAAAAAAAAAAAAAAAAAAAAAAAAAAAAAAAAAAAAAAAAAAAAAAAAAAAAAAAAAAAAAAAAAAAAAAAAAAAAAAAAAAAAAAAAAAAAAAAAAAAAAAAAAAAAAAAAAAAAAAAAAAAAAAAAAAAAAAAAAAAAAAAAAAAAAAAAAAAAAAAAAAAAAAAAAAAAAAAAAAAAAAAAAAAAAAAAAAAAAAAAAAAAAAAAAAAAAAAAAAAAAAAAAAAAAAAAAAAAAAAAAAAAAAAAAAAAAAAAAAAAAAAAAAAAAAAAAAAAAAAAAAAAAAAAAAAAAAAAAAAAAAAAAAAAAAAAAAAAAAAAAAAAAAAAAAAAAAAAAAAAAAAAAAAAAAAAAAAAAAAAAAAAAAAAAAAAAAAAAAAAAAAAAAAAAAAAAAAAAAAAAAAAAAAAAAAAAAAAAAAAAAAAAAAAAAAAAAAAAAAAAAAAAAAAAAAAAAAAAAAAAAAAAAAAAAAAAAAAAAAAAAAAAAAAAAAAAAAAAAAAAAAAAAAAAAAAAAAAAAAAAAAAAAAAAAAAAAAAAAAAAAAAAAAAAAAAAAAAAAAAAAAAAAAAAAAAAAAAAAAAAAAAAAAAAAAAAAAAAAAAAAAAAAAAAAAAAAAAAAAAAAAAAAAAAAAAAAAAAAAAAAAAAAAAAAAAAAAAAAAAAAAAAAAAAAAAAAAAAAAAAAAAAAAAAAAAAAAAAAAAAAAAAAAAAAAAAAAAAAAAAAAAAAAAAAAAAAAAAAAAAAAAAAAAAAAAAAAAAAAAAAAAAAAAAAAAAAAAAAAAAAAAAAAAAAAAAAAAAAAAAAAAAAAAAAAAAAAAAAAAAAAAAAAAAAAAAAAAAAAAAAAAAAAAAAAAAAAAAAAAAAAAAAAAAAAAAAAAAAAAAAAAAAAAAAAAAAAAAAAAAAAAAAAAAAAAAAAAAAAAAAAAAAAAAAAAAAAAAAAAAAAAAAAAAAAAAAAAAAAAAAAAAAAAAAAAAAAAAAAAAAAAAAAAAAAD2WEChIaYzK5Y8AgTbe96B3/JXj/KemmehiNcS2+hX5iXvXAwWxmrJ9i8ic+hPZSD75LEmfx14NiY9rvzVS0WuxwnsAAAWAmp1bWIAAABHanVtZGMybWEAEQAQgAAAqgA4m3EDdXJuOmMycGE6MjU3ZmQxYmItYzg5Zi00MjBlLWFkZmEtNjU3Y2MxMGVlNWJhAAAAC0FqdW1iAAAAKWp1bWRjMmFzABEAEIAAAKoAOJtxA2MycGEuYXNzZXJ0aW9ucwAAAAheanVtYgAAAERqdW1kY2JvcgARABCAAACqADibcRNjMnBhLmluZ3JlZGllbnQudjMAAAAAGGMyc2iPihwrbAG2R9PZ7vYC92rrAAAIEmNib3KnbHJlbGF0aW9uc2hpcGhwYXJlbnRPZmhkYzp0aXRsZWZzb3VyY2VpZGM6Zm9ybWF0bWltYWdlL3N2Zyt4bWxxdmFsaWRhdGlvblJlc3VsdHOibmFjdGl2ZU1hbmlmZXN0o2dzdWNjZXNzhqNkY29kZXgdY2xhaW1TaWduYXR1cmUuaW5zaWRlVmFsaWRpdHljdXJseE1zZWxmI2p1bWJmPS9jMnBhL3VybjpjMnBhOjUwOGY3MGFjLTE1MWItNGUwNy05MTVmLWU3NDk3OWY5MjI0My9jMnBhLnNpZ25hdHVyZWtleHBsYW5hdGlvbnVjbGFpbSBzaWduYXR1cmUgdmFsaWSjZGNvZGV4GGNsYWltU2lnbmF0dXJlLnZhbGlkYXRlZGN1cmx4TXNlbGYjanVtYmY9L2MycGEvdXJuOmMycGE6NTA4ZjcwYWMtMTUxYi00ZTA3LTkxNWYtZTc0OTc5ZjkyMjQzL2MycGEuc2lnbmF0dXJla2V4cGxhbmF0aW9udWNsYWltIHNpZ25hdHVyZSB2YWxpZKNkY29kZXgZYXNzZXJ0aW9uLmhhc2hlZFVSSS5tYXRjaGN1cmx4XnNlbGYjanVtYmY9L2MycGEvdXJuOmMycGE6NTA4ZjcwYWMtMTUxYi00ZTA3LTkxNWYtZTc0OTc5ZjkyMjQzL2MycGEuYXNzZXJ0aW9ucy9jMnBhLmFjdGlvbnMudjJrZXhwbGFuYXRpb254Pmhhc2hlZCB1cmkgbWF0Y2hlZDogc2VsZiNqdW1iZj1jMnBhLmFzc2VydGlvbnMvYzJwYS5hY3Rpb25zLnYyo2Rjb2RleBlhc3NlcnRpb24uaGFzaGVkVVJJLm1hdGNoY3VybHhdc2VsZiNqdW1iZj0vYzJwYS91cm46YzJwYTo1MDhmNzBhYy0xNTFiLTRlMDctOTE1Zi1lNzQ5NzlmOTIyNDMvYzJwYS5hc3NlcnRpb25zL2MycGEuaGFzaC5kYXRha2V4cGxhbmF0aW9ueD1oYXNoZWQgdXJpIG1hdGNoZWQ6IHNlbGYjanVtYmY9YzJwYS5hc3NlcnRpb25zL2MycGEuaGFzaC5kYXRho2Rjb2RleBlhc3NlcnRpb24uaGFzaGVkVVJJLm1hdGNoY3VybHhhc2VsZiNqdW1iZj0vYzJwYS91cm46YzJwYTo1MDhmNzBhYy0xNTFiLTRlMDctOTE1Zi1lNzQ5NzlmOTIyNDMvYzJwYS5hc3NlcnRpb25zL2MycGEuaW5ncmVkaWVudC52M2tleHBsYW5hdGlvbnhBaGFzaGVkIHVyaSBtYXRjaGVkOiBzZWxmI2p1bWJmPWMycGEuYXNzZXJ0aW9ucy9jMnBhLmluZ3JlZGllbnQudjOjZGNvZGV4GGFzc2VydGlvbi5kYXRhSGFzaC5tYXRjaGN1cmx4XXNlbGYjanVtYmY9L2MycGEvdXJuOmMycGE6NTA4ZjcwYWMtMTUxYi00ZTA3LTkxNWYtZTc0OTc5ZjkyMjQzL2MycGEuYXNzZXJ0aW9ucy9jMnBhLmhhc2guZGF0YWtleHBsYW5hdGlvbm9kYXRhIGhhc2ggdmFsaWRtaW5mb3JtYXRpb25hbIBnZmFpbHVyZYGjZGNvZGV4G3NpZ25pbmdDcmVkZW50aWFsLnVudHJ1c3RlZGN1cmx4TXNlbGYjanVtYmY9L2MycGEvdXJuOmMycGE6NTA4ZjcwYWMtMTUxYi00ZTA3LTkxNWYtZTc0OTc5ZjkyMjQzL2MycGEuc2lnbmF0dXJla2V4cGxhbmF0aW9ueB1zaWduaW5nIGNlcnRpZmljYXRlIHVudHJ1c3RlZHBpbmdyZWRpZW50RGVsdGFzgaJ2aW5ncmVkaWVudEFzc2VydGlvblVSSXhhc2VsZiNqdW1iZj0vYzJwYS91cm46YzJwYTo1MDhmNzBhYy0xNTFiLTRlMDctOTE1Zi1lNzQ5NzlmOTIyNDMvYzJwYS5hc3NlcnRpb25zL2MycGEuaW5ncmVkaWVudC52M3B2YWxpZGF0aW9uRGVsdGFzo2dzdWNjZXNzgaNkY29kZXgdaW5ncmVkaWVudC5tYW5pZmVzdC52YWxpZGF0ZWRjdXJseD5zZWxmI2p1bWJmPS9jMnBhL3VybjpjMnBhOjBkNTZlODZkLTAyZWQtNDFmOS05ZjYzLTRkYTc2MWI3ZTRlMmtleHBsYW5hdGlvbndpbmdyZWRpZW50IGhhc2ggbWF0Y2hlZG1pbmZvcm1hdGlvbmFsgGdmYWlsdXJlgGppbnN0YW5jZUlEeCx4bXA6aWlkOjU4YjdkNDlhLWYzZGItNDU3Mi04ZDJkLTI2MWM3OTIyMDlmYW5hY3RpdmVNYW5pZmVzdKNjdXJseD5zZWxmI2p1bWJmPS9jMnBhL3VybjpjMnBhOjUwOGY3MGFjLTE1MWItNGUwNy05MTVmLWU3NDk3OWY5MjI0M2NhbGdmc2hhMjU2ZGhhc2hYIO6l+Ol+R3gH+FlKkosU77COxRQ7W28ngQfGX0Zkbk/dbmNsYWltU2lnbmF0dXJlo2N1cmx4TXNlbGYjanVtYmY9L2MycGEvdXJuOmMycGE6NTA4ZjcwYWMtMTUxYi00ZTA3LTkxNWYtZTc0OTc5ZjkyMjQzL2MycGEuc2lnbmF0dXJlY2FsZ2ZzaGEyNTZkaGFzaFggUVgW8v6IUY+RQ+YIji2sMZRY184lCPUUDUtl2AV7vTQAAAHuanVtYgAAAEFqdW1kY2JvcgARABCAAACqADibcRNjMnBhLmFjdGlvbnMudjIAAAAAGGMyc2g6RZBYFVg9rbyCnUa89iRPAAABpWNib3KhZ2FjdGlvbnOComZhY3Rpb25rYzJwYS5vcGVuZWRqcGFyYW1ldGVyc6FraW5ncmVkaWVudHOBomN1cmx4LXNlbGYjanVtYmY9YzJwYS5hc3NlcnRpb25zL2MycGEuaW5ncmVkaWVudC52M2RoYXNoWCAuJra67ToHHVxhVELs75CfaZbTusLU+lkZlmZtWlxST6RmYWN0aW9ubGMycGEuY3JlYXRlZGpwYXJhbWV0ZXJzoWtpbmdyZWRpZW50c4GiY3VybHgtc2VsZiNqdW1iZj1jMnBhLmFzc2VydGlvbnMvYzJwYS5pbmdyZWRpZW50LnYzZGhhc2hYIC4mtrrtOgcdXGFUQuzvkJ9pltO6wtT6WRmWZm1aXFJPcWRpZ2l0YWxTb3VyY2VUeXBleEFodHRwOi8vY3YuaXB0Yy5vcmcvbmV3c2NvZGVzL2RpZ2l0YWxzb3VyY2V0eXBlL2NvbXBvc2l0ZVN5bnRoZXRpY2tkZXNjcmlwdGlvbngfQ29tcG9zZWQgaW4gdGhlIFJlY3JhZnQgZWRpdG9yLgAAAMRqdW1iAAAAQGp1bWRjYm9yABEAEIAAAKoAOJtxE2MycGEuaGFzaC5kYXRhAAAAABhjMnNoqu6OBbx+Nh8nxyHjnmBkgwAAAHxjYm9ypWpleGNsdXNpb25zgaJlc3RhcnQY6GZsZW5ndGgZTpxkbmFtZW5qdW1iZiBtYW5pZmVzdGNhbGdmc2hhMjU2ZGhhc2hYIKMWGkeyPr+0nku6IAayMgxJgC6DtJp00iw4hpPWTdEzY3BhZEkAAAAAAAAAAAAAAAKWanVtYgAAACdqdW1kYzJjbAARABCAAACqADibcQNjMnBhLmNsYWltLnYyAAAAAmdjYm9yp2ppbnN0YW5jZUlEeCx4bXA6aWlkOjI3NmY3NGE3LWY4MDctNDA1OS1hZjU0LTc0MzA1MGZlNGFlMnRjbGFpbV9nZW5lcmF0b3JfaW5mb6NkbmFtZWpyZWNyYWZ0LmFpZ3ZlcnNpb254KDgxY2U4MmUyYzVjM2NiZmJlOGM2ZmJlMTc5ZDVmOGQ5MWM0MDljZTF3b3JnLmNvbnRlbnRhdXRoLmMycGFfcnNmMC45MC43aXNpZ25hdHVyZXhNc2VsZiNqdW1iZj0vYzJwYS91cm46YzJwYToyNTdmZDFiYi1jODlmLTQyMGUtYWRmYS02NTdjYzEwZWU1YmEvYzJwYS5zaWduYXR1cmVyY3JlYXRlZF9hc3NlcnRpb25zgqJjdXJseCpzZWxmI2p1bWJmPWMycGEuYXNzZXJ0aW9ucy9jMnBhLmFjdGlvbnMudjJkaGFzaFggeM+LCVmY1Ld26C3+xi1fpWfEL9zsQu0/tMdwj8NTIbiiY3VybHgpc2VsZiNqdW1iZj1jMnBhLmFzc2VydGlvbnMvYzJwYS5oYXNoLmRhdGFkaGFzaFggVnfv7akSStuxCAxI90jGbJ2gWjMTYhSyUnx+mn2piv9zZ2F0aGVyZWRfYXNzZXJ0aW9uc4GiY3VybHgtc2VsZiNqdW1iZj1jMnBhLmFzc2VydGlvbnMvYzJwYS5pbmdyZWRpZW50LnYzZGhhc2hYIC4mtrrtOgcdXGFUQuzvkJ9pltO6wtT6WRmWZm1aXFJPaGRjOnRpdGxlbVJlY3JhZnQgSW1hZ2VjYWxnZnNoYTI1NgAAB9xqdW1iAAAAKGp1bWRjMmNzABEAEIAAAKoAOJtxA2MycGEuc2lnbmF0dXJlAAAAB6xjYm9y0oRZA7CiASYYIYJZAecwggHjMIIBiaADAgECAgkAt95aY0NRbnowCgYIKoZIzj0EAwIwQDEfMB0GA1UEAwwWUmVjcmFmdCBTdGFnaW5nIERldiBDQTEQMA4GA1UECgwHUmVjcmFmdDELMAkGA1UEBhMCVVMwHhcNMjYwNjEyMTk0MzUwWhcNMjcwNjEyMTk0MzUwWjA3MQswCQYDVQQGEwJVUzETMBEGA1UEChMKUmVjcmFmdCBBSTETMBEGA1UEAxMKcmVjcmFmdC5haTBZMBMGByqGSM49AgEGCCqGSM49AwEHA0IABEppNVsAKyD8N4bct47Fh0gP9UDoQUbvcTo6Sdv4oiIIUnKBFTPi543bP+3aphvoIhS9LxG+A6KIKV+iqxi3DzWjdTBzMAwGA1UdEwEB/wQCMAAwDgYDVR0PAQH/BAQDAgbAMBMGA1UdJQQMMAoGCCsGAQUFBwMEMB0GA1UdDgQWBBQvMekF6f3pIvXLgg8drwyQyyFd/TAfBgNVHSMEGDAWgBQCCyo4Gsqql0r/+b+TFmjtlHh5tzAKBggqhkjOPQQDAgNIADBFAiBTyEpbRpe++TxJCBUU2RrHr1ib1p7waxPZFlNDD4HnUAIhALQPgGQShEPg3SvZlGQ3LQdlpbdYgLL9BkY33mKUXjLMWQG9MIIBuTCCAV+gAwIBAgIJAJz5aDtPoBNvMAoGCCqGSM49BAMCMEAxHzAdBgNVBAMMFlJlY3JhZnQgU3RhZ2luZyBEZXYgQ0ExEDAOBgNVBAoMB1JlY3JhZnQxCzAJBgNVBAYTAlVTMB4XDTI2MDYxMjE5NDAxNloXDTI4MDYxMTE5NDAxNlowQDEfMB0GA1UEAwwWUmVjcmFmdCBTdGFnaW5nIERldiBDQTEQMA4GA1UECgwHUmVjcmFmdDELMAkGA1UEBhMCVVMwWTATBgcqhkjOPQIBBggqhkjOPQMBBwNCAARD0hAGVxVspoo9itBJ86Ev/TSzvFQMLtGKci4s78jWT33L3KHqhYX2Q/Fo/63HW/U944vfKtWq4nvfQfRkaIPKo0IwQDAPBgNVHRMBAf8EBTADAQH/MA4GA1UdDwEB/wQEAwIBhjAdBgNVHQ4EFgQUAgsqOBrKqpdK//m/kxZo7ZR4ebcwCgYIKoZIzj0EAwIDSAAwRQIgVDA0iYuVgN5CGOAX5mKpNuBy7NKqY4nDdDaVD+G7zcUCIQD07xwub/F+hUuoHiO11u4fOLdYv6nZE34NEaTClizBW6FjcGFkWQOkAAAAAAAAAAAAAAAAAAAAAAAAAAAAAAAAAAAAAAAAAAAAAAAAAAAAAAAAAAAAAAAAAAAAAAAAAAAAAAAAAAAAAAAAAAAAAAAAAAAAAAAAAAAAAAAAAAAAAAAAAAAAAAAAAAAAAAAAAAAAAAAAAAAAAAAAAAAAAAAAAAAAAAAAAAAAAAAAAAAAAAAAAAAAAAAAAAAAAAAAAAAAAAAAAAAAAAAAAAAAAAAAAAAAAAAAAAAAAAAAAAAAAAAAAAAAAAAAAAAAAAAAAAAAAAAAAAAAAAAAAAAAAAAAAAAAAAAAAAAAAAAAAAAAAAAAAAAAAAAAAAAAAAAAAAAAAAAAAAAAAAAAAAAAAAAAAAAAAAAAAAAAAAAAAAAAAAAAAAAAAAAAAAAAAAAAAAAAAAAAAAAAAAAAAAAAAAAAAAAAAAAAAAAAAAAAAAAAAAAAAAAAAAAAAAAAAAAAAAAAAAAAAAAAAAAAAAAAAAAAAAAAAAAAAAAAAAAAAAAAAAAAAAAAAAAAAAAAAAAAAAAAAAAAAAAAAAAAAAAAAAAAAAAAAAAAAAAAAAAAAAAAAAAAAAAAAAAAAAAAAAAAAAAAAAAAAAAAAAAAAAAAAAAAAAAAAAAAAAAAAAAAAAAAAAAAAAAAAAAAAAAAAAAAAAAAAAAAAAAAAAAAAAAAAAAAAAAAAAAAAAAAAAAAAAAAAAAAAAAAAAAAAAAAAAAAAAAAAAAAAAAAAAAAAAAAAAAAAAAAAAAAAAAAAAAAAAAAAAAAAAAAAAAAAAAAAAAAAAAAAAAAAAAAAAAAAAAAAAAAAAAAAAAAAAAAAAAAAAAAAAAAAAAAAAAAAAAAAAAAAAAAAAAAAAAAAAAAAAAAAAAAAAAAAAAAAAAAAAAAAAAAAAAAAAAAAAAAAAAAAAAAAAAAAAAAAAAAAAAAAAAAAAAAAAAAAAAAAAAAAAAAAAAAAAAAAAAAAAAAAAAAAAAAAAAAAAAAAAAAAAAAAAAAAAAAAAAAAAAAAAAAAAAAAAAAAAAAAAAAAAAAAAAAAAAAAAAAAAAAAAAAAAAAAAAAAAAAAAAAAAAAAAAAAAAAAAAAAAAAAAAAAAAAAAAAAAAAAAAAAAAAAAAAAAAAAAAAAAAAAAAAAAAAAAAAAAAAAAAAAAAAAAAAAAAAAAAAAAAAAAAAAAAAAAAAAAAAAAAAAAAAAAAAAAAAAAAAAAAAAAAAAAAAAAAAAAAAAAAAAAAAAAAAAAAAAAAAAAAAAAD2WEBJpNYuG93eWJFXGAGQ5HGfpH6ahnfkqjX3/knkrV6CcMMTHLRd+WHFGd6jg8cSteIRzjoqE+lW60GOnRxsQDOT</c2pa:manifest></metadata><path fill="#32BDE5" d="M283.758 161.707L283.998 161.549C288.76 158.359 306.706 142.807 311.465 143.564C311.734 143.606 311.802 143.605 311.948 143.813C313.288 145.716 311.441 158.624 310.737 161.223C309.683 165.119 307.534 168.697 305.527 172.167C307.745 173.262 309.923 174.779 312.082 176.061C317.231 179.116 323.842 181.85 326.224 187.731C322.449 188.416 319.445 188.329 315.626 187.692C317.285 189.431 320.176 192.474 320.79 194.769L320.65 195.47C316.385 198.265 303.103 188.399 302.11 188.445C302.855 190.086 305.136 191.932 306.372 194.181C309.948 200.689 311.292 214.311 308.997 221.219C306.311 229.305 291.206 239.276 283.718 242.863C282.988 243.213 282.291 243.483 281.497 243.925C288.826 242.968 296.453 241.806 302.82 246.526C308.124 250.458 309.014 255.302 307.709 261.464C305.624 268.174 302.531 274.947 296.434 278.89C295.065 279.776 291.277 282.28 289.791 282.444L289.342 282.552C287.402 284.422 293.669 299.217 294.347 301.847C298.778 319.047 301.749 322.063 281.746 318.682C276.581 317.809 270.384 316.624 265.186 315.788C257.031 314.477 252.786 311.744 247.532 305.492C245.141 302.486 249.248 296.997 251.402 295.035C251.652 294.805 252.603 289.982 252.76 289.264C252.143 288.629 251.384 287.947 251.103 287.079C250.891 286.424 251.143 285.91 251.446 285.345C253.181 282.118 250.653 267.019 249.139 263.223C248.588 261.84 247.934 260.532 247.119 259.285C246.502 258.34 245.369 257.224 245.002 256.177C244.805 255.615 244.792 255.064 244.785 254.476C244.905 254.185 244.927 253.414 244.956 253.055C244.556 250.175 244.893 239.992 245.243 236.901C243.916 237.164 242.374 237.281 241.015 237.423L240.451 236.998C239.588 236.902 239.843 237.023 239.125 236.647L239.1 235.782C241.537 235.776 242.857 235.621 245.266 235.09L245.132 234.716C244.101 231.917 242.274 229.459 240.882 226.888C238.582 222.64 236.057 215.943 237.597 211.162C240.123 203.325 244.8 197.696 250.577 192.126C252.463 190.308 254.067 187.889 256.333 186.389C263.061 182.191 271.267 178.232 279.337 179.704L282.406 177.144C277.96 177.448 273.384 177.193 268.919 177.261C267.204 177.287 265.329 177.411 263.89 176.377C262.682 173.823 268.906 171.712 270.876 171.305C272.514 170.966 274.157 170.787 275.829 170.744L275.53 170.405C272.989 167.55 264.879 162.056 264.298 160.268C265.36 157.144 280.756 161.5 283.758 161.707Z"/><path fill="#FEFCEB" d="M274.701 181.074C275.808 180.972 277.32 181.012 278.464 181.005C277.449 182.726 274.956 186.157 276.481 187.956C278.771 187.46 281.238 186.377 283.531 185.733C286.481 184.904 289.511 184.355 292.529 183.849C293.082 186.735 295.856 195.361 298.27 196.771C301.01 196.991 301.165 192.861 301.454 190.898C307.347 196.691 309.494 212.186 306.967 219.894C304.926 226.044 298.052 230.832 293.205 234.418C286.855 239.116 279.322 243.326 271.384 242.485C271.278 242.474 269.15 243.85 270.16 245.081C272.796 245.762 283.834 245.85 287.073 245.697L286.08 250.598C286.022 254.901 285.933 259.203 285.812 263.504C282.976 263.073 279.761 263.039 276.921 262.844C268.203 262.243 260.675 259.128 253.48 254.299C249.101 251.361 249.515 253.325 248.137 257.253C248.05 252.135 248.951 236.19 246.553 232.341C238.731 219.787 235.481 213.268 245.327 200.472C246.851 198.491 249.126 196.686 250.569 194.93C257.384 186.632 263.912 183.127 274.701 181.074Z"/><path fill="#2DBFF0" d="M267.711 212.085C270.057 211.921 271.792 211.577 273.682 212.973C274.511 214.815 272.094 214.767 271.585 216.595C272.632 217.431 272.801 217.342 273.007 218.405C272.041 221.323 268.574 222.247 265.807 222.466C264.581 222.562 264.563 222.368 263.718 221.617C265.199 219.954 268.813 219.583 271.516 218.516C270.242 218.135 268.578 217.966 268.399 216.504C269.043 215.406 270.766 214.363 271.897 213.524C270.204 213.516 266.876 214.223 265.742 213.546L265.775 213.09C266.399 212.32 266.748 212.333 267.711 212.085Z"/><path fill="#32BDE5" d="M263.382 191.857C263.481 191.865 264.02 191.855 264.137 191.917C265.58 192.687 269.018 199.654 268.817 200.86C266.924 202.605 262.188 202.766 259.526 203.06C259.356 203.072 259.185 203.082 259.015 203.09C257.949 203.141 257.591 203.203 256.9 202.57C256.591 200.458 264.62 200.09 266.28 199.888C265.207 198.021 263.131 193.961 263.382 191.857Z"/><path fill="#32BDE5" d="M280.26 206.757C282.646 206.703 288.292 206.95 290.242 208.133L290.244 208.476C288.534 209.294 284.579 208.978 282.534 208.924L283.938 210.746C285.047 212.063 286.621 213.996 286.572 215.803C285.251 216.9 283.09 213.775 282.5 212.766C281.394 210.878 279.552 209.002 280.26 206.757Z"/><path fill="#FEFCEB" d="M292.816 250.079C291.961 248.687 290.264 246.896 289.131 245.62L289.251 245.233C290.281 244.862 290.894 245.457 291.552 245.314C297.389 244.039 303.055 247.389 305.909 252.424C306.967 254.29 306.573 255.87 306.593 258.121C305.326 265.475 302.003 273.084 295.73 277.453C293.737 278.842 291.689 279.934 289.777 281.255L289.249 281.145C288.103 279.047 292.191 269.211 292.772 266.512C293.047 265.239 295.849 261.001 295.903 260.271C294.842 258.971 293.244 260.471 292.149 261.219C291.813 255.998 291.793 255.332 292.816 250.079Z"/><path fill="#FEFCEB" d="M254.174 270.03C258.521 272.195 262.446 273.948 267.331 274.573C273.879 275.411 280.397 276.137 287.006 276.169C286.868 280.316 286.154 282.738 286.758 286.869C282.81 287.182 274.966 285.883 270.809 285.575C264.989 285.143 259.831 278.923 254.195 278.469C254.245 276.22 253.92 271.945 254.174 270.03Z"/><path fill="#FEFCEB" d="M254.378 292.351C258.211 293.02 262.215 293.56 266.022 294.35C271.713 295.531 284.759 300.032 290.167 298.468L290.533 298.36C291.203 298.972 293.096 306.234 293.595 307.739C291.455 307.406 288.987 307.239 286.915 306.804C275.837 304.481 263.732 301.857 253.532 296.955C253.8 295.418 254.082 293.883 254.378 292.351Z"/><path fill="#FEFCEB" d="M290.894 158.947C291.301 158.982 298.252 166.759 305.491 167.092L303.75 171.02C302.641 170.992 301.415 170.874 300.299 170.792C300.13 170.773 299.713 170.642 299.531 170.591C298.226 168.48 295.742 168.356 293.424 167.488C290.397 166.354 287.913 165.217 285.1 163.631C286.999 162.291 289.085 160.459 290.894 158.947Z"/><path fill="#FEFCEB" d="M309.704 146.232C310.694 147.521 308.995 157.196 308.869 159.738C306.475 157.074 306.4 157.216 302.941 155.975C300.993 155.358 300.157 154.987 298.307 154.091C302.332 149.793 304.484 149.127 309.704 146.232Z"/><path fill="#FEFCEB" d="M209.668 224.36C210.802 219.536 212.363 214.926 218.501 216.347C221.929 218.566 220.9 223.533 219.256 226.591C220.941 227.223 222.965 230.487 223.676 232.171C228.61 235.554 233.616 235.245 239.1 235.782L239.125 236.647C239.843 237.023 239.588 236.902 240.451 236.998L241.015 237.423C242.374 237.281 243.916 237.164 245.243 236.901C244.893 239.992 244.556 250.175 244.956 253.055C244.927 253.414 244.905 254.185 244.785 254.476C238.928 254.908 222.707 254.696 217.188 253.191C209.743 251.055 198.96 245.159 200.893 235.812C201.204 230.577 205.151 226.505 209.668 224.36Z"/><path fill="#2DBFF0" d="M209.668 224.36C210.802 219.536 212.363 214.926 218.501 216.347C221.929 218.566 220.9 223.533 219.256 226.591C218.903 226.469 218.525 226.143 218.025 225.95C218.038 226.852 218.166 226.471 217.757 227.167C215.125 225.849 213.127 225.321 210.209 225.874C205.221 229.104 204.745 229.016 202.568 235.063L202.151 234.926C202.311 234.477 202.457 234.024 202.59 233.566L202.389 233.384L202.022 233.863L201.861 233.655C201.651 234.513 201.377 235.064 200.893 235.812C201.204 230.577 205.151 226.505 209.668 224.36Z"/><path fill="#FEFCEB" d="M213.108 224.245C212.198 224.085 212.29 224.239 211.676 223.728C211.249 220.618 214.329 217.496 217.359 217.348C219.029 219.274 220.236 224.276 217.877 225.619C216.851 225.102 214.244 224.417 213.108 224.245Z"/><path fill="#32BDE5" d="M200.893 235.812C201.377 235.064 201.651 234.513 201.861 233.655L202.022 233.863L202.389 233.384L202.59 233.566C202.457 234.024 202.311 234.477 202.151 234.926L202.568 235.063C201.156 244.521 210.108 249.314 217.827 251.615C217.289 252.337 217.335 252.293 217.188 253.191C209.743 251.055 198.96 245.159 200.893 235.812Z"/><path fill="#2DBFF0" d="M217.827 251.615C224.438 253.314 238.15 253.068 244.956 253.055C244.927 253.414 244.905 254.185 244.785 254.476C238.928 254.908 222.707 254.696 217.188 253.191C217.335 252.293 217.289 252.337 217.827 251.615Z"/><path fill="#32BDE5" d="M218.025 225.95C218.525 226.143 218.903 226.469 219.256 226.591C220.941 227.223 222.965 230.487 223.676 232.171L223.257 233.036C223.525 233.629 223.327 233.404 223.815 233.741C222.348 237.089 222 242.196 217.986 244.038C216.993 244.493 216.511 245.095 215.334 244.803L215.309 244.183C215.811 242.993 218.038 242.33 218.653 241.431C222.922 235.185 223.485 231.938 217.757 227.167C218.166 226.471 218.038 226.852 218.025 225.95Z"/><path fill="#2DBFF0" d="M223.676 232.171C228.61 235.554 233.616 235.245 239.1 235.782L239.125 236.647C239.843 237.023 239.588 236.902 240.451 236.998L241.015 237.423C236.052 237.467 227.759 237.008 223.815 233.741C223.327 233.404 223.525 233.629 223.257 233.036L223.676 232.171Z"/></svg>